<?xml version="1.0" encoding="utf-8"?>
<!-- Generator: Adobe Illustrator 19.0.0, SVG Export Plug-In . SVG Version: 6.00 Build 0)  -->
<svg version="1.1" id="Слой_1" xmlns="http://www.w3.org/2000/svg" xmlns:xlink="http://www.w3.org/1999/xlink" x="0px" y="0px"
	 viewBox="0 0 104 104" style="enable-background:new 0 0 104 104;" xml:space="preserve">
<style type="text/css">
	.st0{fill:none;stroke:#2C3238;stroke-width:3;stroke-linecap:round;stroke-linejoin:round;stroke-miterlimit:10;}
	.st1{fill:#F5F6F6;}
	.st2{fill:#2C3238;}
</style>
<circle id="XMLID_8_" class="st0" cx="52.4" cy="52" r="49.3"/>
<path id="XMLID_7_" class="st0" d="M59.8,66.6l-0.2-0.9c-0.3-1.3,0.2-2.7,1.3-3.6c6.2-4.9,10.4-14.5,10.4-23.3
	c0-12.5-8.5-22.6-19-22.6c-10.5,0-19,10.1-19,22.6c0,8.7,4.1,18.2,10.2,23.1c1.1,0.9,1.5,2.3,1.2,3.7l-0.2,1.1
	c-1.5,3-18.8,5.7-21.2,9.4c0,0-0.4,2.1-0.8,3.7c3.3,3.6,7.3,6.6,11.8,8.8c2.7,1.2,5.7,2.3,8.7,3.1c3,0.7,6.1,1.1,9.3,1.1
	c3,0,5.9-0.3,8.6-0.9c3.3-0.8,6.6-2,9.5-3.4c4.4-2.2,8.3-5.2,11.7-8.7c-0.3-1.6-0.8-3.6-0.8-3.6C79,72.3,61.3,69.5,59.8,66.6z"/>
<path id="XMLID_6_" class="st0" d="M31.6,40.7c0,0,0.7,10.6,14,14.3c10.7,3,10-0.7,10-0.7"/>
<circle id="XMLID_5_" class="st1" cx="85.6" cy="79.7" r="16.7"/>
<path id="XMLID_2_" class="st2" d="M85.9,84.8c-2.8,0-5-2.2-5-5c0-2.8,2.2-5,5-5c2.8,0,5,2.2,5,5C90.9,82.6,88.7,84.8,85.9,84.8z
	 M95.3,78c-0.4-0.1-0.8-0.4-1-0.8l-0.6-1.5c-0.2-0.4-0.1-0.9,0.1-1.2l1-1.3c0.2-0.3,0.2-0.8,0-1.1l-1.1-1.1c-0.3-0.3-0.8-0.3-1.1,0
	l-1.3,1c-0.3,0.2-0.9,0.3-1.2,0.1l-1.5-0.6c-0.4-0.1-0.8-0.6-0.8-1l-0.2-1.6c-0.1-0.4-0.4-0.8-0.8-0.8c0,0-0.3,0-0.8,0
	c-0.5,0-0.8,0-0.8,0c-0.4,0-0.8,0.4-0.8,0.8l-0.2,1.6c-0.1,0.4-0.4,0.8-0.8,1L81.8,72c-0.4,0.2-0.9,0.1-1.2-0.1l-1.3-1
	c-0.3-0.2-0.8-0.2-1.1,0L77,72c-0.3,0.3-0.3,0.8,0,1.1l1,1.3c0.2,0.3,0.3,0.9,0.1,1.2l-0.6,1.5c-0.1,0.4-0.6,0.8-1,0.8l-1.6,0.2
	c-0.4,0.1-0.8,0.4-0.8,0.8c0,0,0,0.3,0,0.8c0,0.5,0,0.8,0,0.8c0,0.4,0.4,0.8,0.8,0.8l1.6,0.2c0.4,0.1,0.8,0.4,1,0.8l0.6,1.5
	c0.2,0.4,0.1,0.9-0.1,1.2l-1,1.3c-0.2,0.3-0.3,0.8-0.1,1c0.2,0.2,0.7,0.7,0.7,0.7c0,0,0.2,0.2,0.4,0.3c0.2,0.2,1,0.4,1.4,0.2l1.3-1
	c0.3-0.2,0.9-0.3,1.2-0.1l1.5,0.6c0.4,0.1,0.8,0.6,0.8,1l0.2,1.6c0.1,0.4,0.4,0.8,0.8,0.8c0,0,0.3,0,0.8,0c0.5,0,0.8,0,0.8,0
	c0.4,0,0.8-0.4,0.8-0.8l0.2-1.6c0.1-0.4,0.4-0.8,0.8-1l1.5-0.6c0.4-0.2,0.9-0.1,1.2,0.1l1.3,1c0.3,0.2,0.8,0.2,1.1,0l1.1-1.1
	c0.3-0.3,0.3-0.8,0-1.2l-1-1.3c-0.2-0.3-0.3-0.9-0.1-1.2l0.6-1.5c0.1-0.4,0.6-0.8,1-0.8l1.6-0.2c0.4-0.1,0.8-0.4,0.8-0.8
	c0,0,0-0.3,0-0.8c0-0.5,0-0.8,0-0.8c0-0.4-0.4-0.8-0.8-0.8L95.3,78z"/>
</svg>
