<?xml version="1.0" encoding="utf-8"?>
<!-- Generator: Adobe Illustrator 19.0.0, SVG Export Plug-In . SVG Version: 6.00 Build 0)  -->
<svg version="1.1" id="Слой_1" xmlns="http://www.w3.org/2000/svg" xmlns:xlink="http://www.w3.org/1999/xlink" x="0px" y="0px"
	 viewBox="0 0 90 90" style="enable-background:new 0 0 90 90;" xml:space="preserve">
<style type="text/css">
	.st0{fill:none;stroke:#2C3238;stroke-width:3;stroke-miterlimit:10;}
	.st1{fill:none;stroke:#2C3238;stroke-width:3;stroke-linecap:round;stroke-miterlimit:10;}
	.st2{fill:none;stroke:#2C3238;stroke-width:3;stroke-linecap:round;stroke-linejoin:round;stroke-miterlimit:10;}
	.st3{fill:#2C3238;}
</style>
<path id="XMLID_16_" class="st0" d="M37,18.1h40.9c5.2,0,9.5,4.2,9.5,9.5v47c0,5.2-4.2,9.5-9.5,9.5H25.2c-5.2,0-9.5-4.2-9.5-9.5
	V37.8"/>
<path id="XMLID_15_" class="st0" d="M51.9,63L51.9,63c-6.4,0-11.5-5.1-11.5-11.5v0c0-6.4,5.1-11.5,11.5-11.5h0
	c6.4,0,11.5,5.1,11.5,11.5v0C63.4,57.8,58.2,63,51.9,63z"/>
<line id="XMLID_14_" class="st1" x1="70" y1="50.1" x2="79.4" y2="50.1"/>
<line id="XMLID_13_" class="st2" x1="20.7" y1="38.5" x2="20.7" y2="41.1"/>
<line id="XMLID_12_" class="st2" x1="20.7" y1="59.5" x2="20.7" y2="71.2"/>
<line id="XMLID_11_" class="st2" x1="60.2" y1="60.1" x2="64.1" y2="64"/>
<line id="XMLID_10_" class="st2" x1="39.6" y1="39.5" x2="43.3" y2="43.2"/>
<line id="XMLID_9_" class="st2" x1="60.1" y1="43.5" x2="64.1" y2="39.5"/>
<line id="XMLID_8_" class="st2" x1="39.6" y1="64" x2="43.7" y2="59.9"/>
<line id="XMLID_7_" class="st2" x1="25.6" y1="85.9" x2="35.1" y2="85.9"/>
<line id="XMLID_6_" class="st2" x1="67.6" y1="85.9" x2="77.1" y2="85.9"/>
<g id="XMLID_2_">
	<circle id="XMLID_5_" class="st2" cx="19.1" cy="20.1" r="17.5"/>
	<circle id="XMLID_4_" class="st2" cx="19.1" cy="20.1" r="8.5"/>
	<circle id="XMLID_3_" class="st3" cx="19.1" cy="20.1" r="2.5"/>
</g>
</svg>
