<?xml version="1.0" encoding="utf-8"?>
<!-- Generator: Adobe Illustrator 19.0.0, SVG Export Plug-In . SVG Version: 6.00 Build 0)  -->
<svg version="1.1" id="Слой_1" xmlns="http://www.w3.org/2000/svg" xmlns:xlink="http://www.w3.org/1999/xlink" x="0px" y="0px"
	 viewBox="0 0 84 84" style="enable-background:new 0 0 84 84;" xml:space="preserve">
<style type="text/css">
	.st0{fill:none;stroke:#2C3238;stroke-width:3;stroke-linecap:round;stroke-linejoin:round;stroke-miterlimit:10;}
	.st1{fill:none;stroke:#2C3238;stroke-width:3;stroke-linecap:round;stroke-linejoin:round;stroke-dasharray:5.4466;}
	.st2{fill:none;stroke:#2C3238;stroke-width:3;stroke-linecap:round;stroke-linejoin:round;stroke-dasharray:3.0718;}
	.st3{fill:#2C3238;}
</style>
<polyline id="XMLID_14_" class="st0" points="40.6,24.9 16.7,12.9 19.9,6.5 30.2,3.5 48.2,12.4 50.4,13.3 "/>
<g id="XMLID_11_">
	<line id="XMLID_13_" class="st1" x1="-208.9" y1="-350.9" x2="-213.8" y2="-353.3"/>
</g>
<g id="XMLID_8_">
	<line id="XMLID_10_" class="st2" x1="-200.8" y1="-363.1" x2="-198.1" y2="-361.7"/>
</g>
<path id="XMLID_7_" class="st0" d="M4.3,81.8L4.3,81.8c-2.1-1-2.9-3.5-1.9-5.6L30.5,20l7.5,3.7L9.9,80C8.9,82,6.4,82.9,4.3,81.8z"/>
<path id="XMLID_6_" class="st0" d="M44.1,2.2L44.1,2.2c2.1,1,2.9,3.5,1.9,5.6l-1.2,2.5l-7.5-3.7L38.5,4C39.5,2,42,1.1,44.1,2.2z"/>
<g id="XMLID_2_">
	<circle id="XMLID_5_" class="st0" cx="61.5" cy="31.4" r="20.5"/>
	<circle id="XMLID_4_" class="st0" cx="61.5" cy="31.4" r="10"/>
	<circle id="XMLID_3_" class="st3" cx="61.5" cy="31.4" r="2.9"/>
</g>
</svg>
