<?xml version="1.0" encoding="utf-8"?>
<!-- Generator: Adobe Illustrator 19.0.0, SVG Export Plug-In . SVG Version: 6.00 Build 0)  -->
<svg version="1.1" id="Слой_1" xmlns="http://www.w3.org/2000/svg" xmlns:xlink="http://www.w3.org/1999/xlink" x="0px" y="0px"
	 viewBox="0 0 74 74" style="enable-background:new 0 0 74 74;" xml:space="preserve">
<style type="text/css">
	.st0{fill:none;stroke:#2C3238;stroke-width:3;stroke-linecap:round;stroke-linejoin:round;stroke-miterlimit:10;}
	.st1{fill:none;stroke:#2C3238;stroke-width:3;stroke-linecap:round;stroke-linejoin:round;}
	.st2{fill:#2C3238;}
</style>
<g id="XMLID_2_">
	<path id="XMLID_18_" class="st0" d="M46.4,8.6c2-4.2,7-5.9,11.2-3.9l10.1,4.9c4.2,2,5.9,7,3.9,11.2L50.8,63.4
		c-2,4.2-7,5.9-11.2,3.9l-10.1-4.9c-4.2-2-5.9-7-3.9-11.2l15.8-32.4"/>
	<g id="XMLID_12_">
		<g id="XMLID_28_">
			<path id="XMLID_31_" class="st1" d="M32.6,13.1h5.1c6.3,0,12.4,2.5,16.9,6.8l3.6,3.5"/>
			<g id="XMLID_29_">
				<polygon id="XMLID_30_" class="st2" points="45.6,25 45.6,22.6 57.5,22.8 56.8,11 59.2,10.9 60,25.3 				"/>
			</g>
		</g>
	</g>
	<rect id="XMLID_11_" x="2.7" y="2" class="st0" width="15" height="67.7"/>
	<line id="XMLID_10_" class="st0" x1="17.5" y1="9.9" x2="2.7" y2="24.6"/>
	<line id="XMLID_9_" class="st0" x1="17.5" y1="19.9" x2="2.7" y2="34.7"/>
	<line id="XMLID_8_" class="st0" x1="17.5" y1="29.9" x2="2.7" y2="44.7"/>
	<line id="XMLID_7_" class="st0" x1="17.5" y1="39.9" x2="2.7" y2="54.7"/>
	<line id="XMLID_6_" class="st0" x1="17.5" y1="49.9" x2="2.7" y2="64.7"/>
	<line id="XMLID_5_" class="st0" x1="17.5" y1="59.9" x2="8.6" y2="68.8"/>
	<line id="XMLID_4_" class="st0" x1="15.5" y1="1.9" x2="2.7" y2="14.6"/>
	<line id="XMLID_3_" class="st0" x1="17.7" y1="69.6" x2="59.2" y2="69.6"/>
</g>
</svg>
