<?xml version="1.0" encoding="utf-8"?>
<!-- Generator: Adobe Illustrator 19.0.0, SVG Export Plug-In . SVG Version: 6.00 Build 0)  -->
<svg version="1.1" id="Слой_1" xmlns="http://www.w3.org/2000/svg" xmlns:xlink="http://www.w3.org/1999/xlink" x="0px" y="0px"
	 viewBox="0 0 104 104" style="enable-background:new 0 0 104 104;" xml:space="preserve">
<style type="text/css">
	.st0{fill:none;stroke:#2C3238;stroke-width:3;stroke-linecap:round;stroke-linejoin:round;stroke-miterlimit:10;}
	.st1{fill:#2C3238;}
	.st2{font-family:'OpenSans-Semibold';}
	.st3{font-size:26.6018px;}
</style>
<circle id="XMLID_6_" class="st0" cx="52" cy="52" r="49.3"/>
<path id="XMLID_3_" class="st1" d="M51.7,70.7C41.4,70.7,33,62.3,33,52c0-10.3,8.4-18.7,18.7-18.7c10.3,0,18.7,8.4,18.7,18.7
	C70.4,62.3,62,70.7,51.7,70.7z M75.7,47.3c-1-0.1-2.1-1.1-2.4-2.1l-1.5-3.7c-0.5-0.9-0.4-2.4,0.3-3.2l2.5-3.3
	c0.6-0.8,0.6-2.1-0.1-2.9l-2.7-2.7c-0.8-0.7-2.1-0.7-2.9-0.1l-3.3,2.5c-0.8,0.6-2.3,0.7-3.2,0.3l-3.7-1.5c-1-0.3-1.9-1.4-2.1-2.4
	l-0.6-4.1c-0.1-1-1.1-2-2.1-2.1c0,0-0.6-0.1-1.9-0.1c-1.3,0-1.9,0.1-1.9,0.1c-1,0.1-2,1-2.1,2.1L47.1,28c-0.1,1-1.1,2.1-2.1,2.4
	L41.3,32c-0.9,0.5-2.3,0.4-3.2-0.3l-3.3-2.5c-0.8-0.6-2.1-0.6-2.9,0.1l-2.7,2.7c-0.7,0.8-0.7,2.1-0.1,2.9l2.5,3.3
	c0.6,0.8,0.7,2.3,0.3,3.2l-1.5,3.7c-0.3,1-1.4,1.9-2.4,2.1l-4.1,0.6c-1,0.2-2,1.1-2.1,2.1c0,0-0.1,0.6-0.1,1.9
	c0,1.3,0.1,1.9,0.1,1.9c0.1,1,1,2,2.1,2.1l4.1,0.6c1,0.2,2.1,1.1,2.4,2.1l1.5,3.7c0.5,0.9,0.4,2.4-0.3,3.2L29,69
	c-0.6,0.8-0.8,2-0.3,2.5c0.4,0.5,1.7,1.9,1.7,1.9c0,0,0.4,0.4,0.9,0.9c0.5,0.5,2.6,1.1,3.4,0.5l3.3-2.5c0.8-0.6,2.3-0.7,3.2-0.3
	l3.7,1.5c1,0.3,1.9,1.4,2.1,2.4l0.6,4.1c0.1,1,1.1,2,2.1,2.1c0,0,0.6,0.1,1.9,0.1c1.3,0,1.9-0.1,1.9-0.1c1-0.1,2-1,2.1-2.1l0.6-4.1
	c0.1-1,1.1-2.1,2.1-2.4l3.7-1.5c0.9-0.5,2.4-0.4,3.2,0.3l3.3,2.5c0.8,0.6,2.1,0.6,2.9-0.1l2.7-2.7c0.7-0.8,0.7-2.1,0.1-2.9l-2.5-3.3
	c-0.6-0.8-0.7-2.3-0.3-3.2l1.5-3.7c0.3-1,1.4-1.9,2.4-2.1l4.1-0.6c1-0.2,2-1.1,2.1-2.1c0,0,0.1-0.6,0.1-1.9c0-1.3-0.1-1.9-0.1-1.9
	c-0.1-1-1-2-2.1-2.1L75.7,47.3z"/>
<text id="XMLID_2_" transform="matrix(1 0 0 1 46.0675 60.98)" class="st1 st2 st3">?</text>
</svg>
