<?xml version="1.0" encoding="utf-8"?>
<!-- Generator: Adobe Illustrator 16.0.0, SVG Export Plug-In . SVG Version: 6.00 Build 0)  -->
<!DOCTYPE svg PUBLIC "-//W3C//DTD SVG 1.1//EN" "http://www.w3.org/Graphics/SVG/1.1/DTD/svg11.dtd">
<svg version="1.1" id="Слой_1" xmlns="http://www.w3.org/2000/svg" xmlns:xlink="http://www.w3.org/1999/xlink" x="0px" y="0px"
	 width="121.95px" height="74.958px" viewBox="0 0 121.95 74.958" enable-background="new 0 0 121.95 74.958" xml:space="preserve">
<g>
	<defs>
		<rect id="SVGID_1_" width="121.95" height="74.958"/>
	</defs>
	<clipPath id="SVGID_2_">
		<use xlink:href="#SVGID_1_"  overflow="visible"/>
	</clipPath>
	<path clip-path="url(#SVGID_2_)" fill="none" stroke="#2B3137" stroke-width="3" stroke-miterlimit="10" d="M31.698,38.033h49.477
		c1.011,0,1.831,0.819,1.831,1.831v31.765c0,1.011-0.82,1.83-1.831,1.83H31.698c-1.011,0-1.83-0.819-1.83-1.83V39.863
		C29.868,38.852,30.687,38.033,31.698,38.033z"/>
	<path clip-path="url(#SVGID_2_)" fill="none" stroke="#2B3137" stroke-width="3" stroke-miterlimit="10" d="M100.089,38.033h18.53
		c1.012,0,1.83,0.819,1.83,1.831v21.449c0,1.011-0.818,1.83-1.83,1.83h-18.53c-1.012,0-1.83-0.819-1.83-1.83V39.863
		C98.259,38.852,99.077,38.033,100.089,38.033z"/>
	<path clip-path="url(#SVGID_2_)" fill="none" stroke="#2B3137" stroke-width="3" stroke-miterlimit="10" d="M3.33,5.803h28.193
		c1.011,0,1.83,0.819,1.83,1.83v17.575c0,1.011-0.819,1.831-1.83,1.831H3.33c-1.011,0-1.83-0.82-1.83-1.831V7.633
		C1.5,6.622,2.319,5.803,3.33,5.803z"/>
	<path clip-path="url(#SVGID_2_)" fill="none" stroke="#2B3137" stroke-width="3" stroke-miterlimit="10" d="M45.234,23.787V3.331
		c0-1.011,0.819-1.831,1.83-1.831h66.416c1.01,0,1.83,0.82,1.83,1.831v20.456c0,1.011-0.82,1.83-1.83,1.83H47.064
		C46.053,25.617,45.234,24.797,45.234,23.787z"/>
</g>
</svg>
