<?xml version="1.0" encoding="utf-8"?>
<!-- Generator: Adobe Illustrator 19.0.0, SVG Export Plug-In . SVG Version: 6.00 Build 0)  -->
<svg version="1.1" id="Слой_1" xmlns="http://www.w3.org/2000/svg" xmlns:xlink="http://www.w3.org/1999/xlink" x="0px" y="0px"
	 viewBox="0 0 80 80" style="enable-background:new 0 0 80 80;" xml:space="preserve">
<style type="text/css">
	.st0{fill:none;stroke:#2C3238;stroke-width:3;stroke-miterlimit:10;}
</style>
<path id="XMLID_6_" class="st0" d="M2.5,3.9l4.6,14.4C11,30.3,20.2,39.8,32,43.8l17.2,5.9l-4.8-15.8C40.1,19.9,28.9,9.5,14.8,6.5
	L2.5,3.9z"/>
<path id="XMLID_5_" class="st0" d="M77.5,18.2l-9.4,3c-7.9,2.5-9.9,5.2-13.1,14.1l-4.8,13l10.3-3.1c9.1-2.7,11.8-7,14.6-17.7
	L77.5,18.2z"/>
<path id="XMLID_4_" class="st0" d="M16,20.1"/>
<line id="XMLID_3_" class="st0" x1="27.7" y1="27" x2="49.2" y2="49.6"/>
<path id="XMLID_2_" class="st0" d="M46.7,47.6c0,0,10.8,13.1,11.1,30.3"/>
</svg>
