<?xml version="1.0" encoding="utf-8"?>
<!-- Generator: Adobe Illustrator 19.0.0, SVG Export Plug-In . SVG Version: 6.00 Build 0)  -->
<svg version="1.1" id="Слой_1" xmlns="http://www.w3.org/2000/svg" xmlns:xlink="http://www.w3.org/1999/xlink" x="0px" y="0px"
	 viewBox="0 0 120 65" style="enable-background:new 0 0 120 65;" xml:space="preserve">
<style type="text/css">
	.st0{fill:none;stroke:#2C3238;stroke-width:3;stroke-linejoin:round;stroke-miterlimit:10;}
	.st1{fill:none;stroke:#2C3238;stroke-width:4;stroke-miterlimit:10;}
	.st2{fill:none;stroke:#2C3238;stroke-width:3;stroke-miterlimit:10;}
</style>
<path id="XMLID_8_" class="st0" d="M101.4,1.9c-4.3,0-8.2,1.6-11.1,4.2c-3-2.6-6.9-4.2-11.1-4.2c-9.4,0-17,7.7-17,17.3
	c0,19.4,25.2,46.5,28.2,43.9c3,2.6,28.2-24.8,28.2-43.9C118.4,9.6,110.8,1.9,101.4,1.9z"/>
<line id="XMLID_7_" class="st1" x1="17.3" y1="30.8" x2="64.6" y2="30.8"/>
<path id="XMLID_6_" class="st1" d="M80,55.8c-0.5,0-40,0-40.5,0"/>
<path id="XMLID_5_" class="st1" d="M21,4.3c0.5,0,49.3,0,49.8,0"/>
<line id="XMLID_4_" class="st2" x1="55.1" y1="16.7" x2="0.1" y2="16.7"/>
<line id="XMLID_3_" class="st2" x1="54.8" y1="44.3" x2="30.9" y2="44.3"/>
<line id="XMLID_2_" class="st2" x1="15.4" y1="43.9" x2="8.2" y2="43.9"/>
</svg>
