<?xml version="1.0" encoding="utf-8"?>
<!-- Generator: Adobe Illustrator 19.0.0, SVG Export Plug-In . SVG Version: 6.00 Build 0)  -->
<svg version="1.1" id="Слой_1" xmlns="http://www.w3.org/2000/svg" xmlns:xlink="http://www.w3.org/1999/xlink" x="0px" y="0px"
	 viewBox="0 0 65 65" style="enable-background:new 0 0 65 65;" xml:space="preserve">
<style type="text/css">
	
		.st0{fill-rule:evenodd;clip-rule:evenodd;fill:#2C3238;stroke:#2C3238;stroke-width:3;stroke-linejoin:round;stroke-miterlimit:10;}
	.st1{fill-rule:evenodd;clip-rule:evenodd;fill:none;stroke:#2C3238;stroke-width:3;stroke-linejoin:round;stroke-miterlimit:10;}
	.st2{fill:none;stroke:#FFFFFF;stroke-width:3;stroke-linejoin:round;stroke-miterlimit:10;}
</style>
<path id="XMLID_6_" class="st0" d="M53.4,22.9c0,11.6-16.3,40.2-21,40.2c-5.2,0-21-28.6-21-40.2s9.4-20.9,21-20.9
	S53.4,11.3,53.4,22.9z"/>
<path id="XMLID_5_" class="st1" d="M61.1,12.4c1.3,3.1,2,6.8,2,10.8c0,3.9-1.7,9.6-4,15.5"/>
<path id="XMLID_4_" class="st1" d="M4,12.3c-1.3,3.2-2,6.9-2,10.9c0,3.8,1.6,9.3,3.9,15.1"/>
<polyline id="XMLID_3_" class="st2" points="24.4,26 32.5,34.1 40.8,25.7 "/>
<line id="XMLID_2_" class="st2" x1="32.5" y1="32.2" x2="32.5" y2="15.6"/>
</svg>
