<?xml version="1.0" encoding="utf-8"?>
<!-- Generator: Adobe Illustrator 16.0.0, SVG Export Plug-In . SVG Version: 6.00 Build 0)  -->
<!DOCTYPE svg PUBLIC "-//W3C//DTD SVG 1.1//EN" "http://www.w3.org/Graphics/SVG/1.1/DTD/svg11.dtd">
<svg version="1.1" id="Слой_1" xmlns="http://www.w3.org/2000/svg" xmlns:xlink="http://www.w3.org/1999/xlink" x="0px" y="0px"
	 width="42.5px" height="42.5px" viewBox="0 0 42.5 42.5" enable-background="new 0 0 42.5 42.5" xml:space="preserve">
<g>
	<defs>
		<rect id="SVGID_1_" width="42.5" height="42.5"/>
	</defs>
	<clipPath id="SVGID_2_">
		<use xlink:href="#SVGID_1_"  overflow="visible"/>
	</clipPath>
	<path clip-path="url(#SVGID_2_)" fill="#f2596c" d="M21.25,0C9.514,0,0,9.514,0,21.25C0,32.986,9.514,42.5,21.25,42.5
		c11.736,0,21.25-9.514,21.25-21.25C42.5,9.514,32.986,0,21.25,0 M23.69,32.097c0,1.233-0.584,1.85-1.816,1.85H21.03
		c-1.233,0-1.817-0.616-1.817-1.85v-0.843c0-1.232,0.584-1.85,1.817-1.85h0.844c1.232,0,1.816,0.617,1.816,1.85V32.097z
		 M23.69,11.108l-0.584,11.127c-0.064,1.136-0.324,2.077-1.654,2.077s-1.59-0.94-1.655-2.077l-0.584-11.127
		c-0.097-1.558,0.033-2.4,1.428-2.4h1.654C23.69,8.708,23.755,9.55,23.69,11.108"/>
</g>
</svg>
