<?xml version="1.0" encoding="utf-8"?>
<!-- Generator: Adobe Illustrator 16.0.0, SVG Export Plug-In . SVG Version: 6.00 Build 0)  -->
<!DOCTYPE svg PUBLIC "-//W3C//DTD SVG 1.1//EN" "http://www.w3.org/Graphics/SVG/1.1/DTD/svg11.dtd">
<svg version="1.1" id="Слой_1" xmlns="http://www.w3.org/2000/svg" xmlns:xlink="http://www.w3.org/1999/xlink" x="0px" y="0px"
	 width="53.663px" height="57.501px" viewBox="0 0 53.663 57.501" enable-background="new 0 0 53.663 57.501" xml:space="preserve">
<g>
	<defs>
		<rect id="SVGID_1_" width="53.663" height="57.501"/>
	</defs>
	<clipPath id="SVGID_2_">
		<use xlink:href="#SVGID_1_"  overflow="visible"/>
	</clipPath>
	<path clip-path="url(#SVGID_2_)" fill="#ffffff" d="M50.163,32.831c-1.535,0-3.071-0.586-4.242-1.757l-2.257-2.257v21.684H10.331
		V28.485l-2.589,2.589c-1.214,1.214-2.819,1.785-4.411,1.741v21.186c0,1.933,1.567,3.5,3.5,3.5h40.333c1.933,0,3.5-1.567,3.5-3.5
		V32.783C50.497,32.797,50.331,32.831,50.163,32.831"/>
	<path clip-path="url(#SVGID_2_)" fill="#ffffff" d="M50.163,30.332c-0.896,0-1.791-0.342-2.475-1.025L26.832,8.45L5.975,29.307
		c-1.366,1.366-3.583,1.367-4.95,0c-1.367-1.367-1.367-3.583,0-4.95L24.357,1.024C25.014,0.369,25.904,0,26.832,0
		c0.929,0,1.818,0.369,2.475,1.026l23.331,23.331c1.367,1.367,1.367,3.583,0,4.95C51.955,29.989,51.06,30.332,50.163,30.332"/>
	
		<line clip-path="url(#SVGID_2_)" fill="none" stroke="#ffffff" stroke-width="7" stroke-linecap="round" stroke-linejoin="round" stroke-miterlimit="10" x1="42.207" y1="6.205" x2="42.207" y2="18.038"/>
</g>
</svg>
