<?xml version="1.0" encoding="utf-8"?>
<!-- Generator: Adobe Illustrator 16.0.0, SVG Export Plug-In . SVG Version: 6.00 Build 0)  -->
<!DOCTYPE svg PUBLIC "-//W3C//DTD SVG 1.1//EN" "http://www.w3.org/Graphics/SVG/1.1/DTD/svg11.dtd">
<svg version="1.1" id="Слой_1" xmlns="http://www.w3.org/2000/svg" xmlns:xlink="http://www.w3.org/1999/xlink" x="0px" y="0px"
	 width="12.32px" height="14.208px" viewBox="0 0 12.32 14.208" enable-background="new 0 0 12.32 14.208" xml:space="preserve">
<g>
	<defs>
		<rect id="SVGID_1_" y="0" width="12.32" height="14.208"/>
	</defs>
	<clipPath id="SVGID_2_">
		<use xlink:href="#SVGID_1_"  overflow="visible"/>
	</clipPath>
	<path fill="rgba(255, 255, 255, 0.47)" clip-path="url(#SVGID_2_)" d="M12.32,14.208v-1.166c0-0.773-4.273-2.138-4.603-2.8L7.569,9.945
		C8.508,9.18,9.257,8.219,9.636,6.643c0.076,0.072,0.607-0.491,0.607-1.236c0-0.74-0.009-1.34-0.353-1.347
		C9.744,1.374,8.141,0,6.179,0c-1.976,0-3.587,1.39-3.714,4.117C2.446,4.114,2.429,4.106,2.411,4.106
		c-0.347,0-0.358,0.603-0.358,1.348c0,0.744,0.573,1.28,0.664,1.17c0.365,1.532,1.081,2.454,1.981,3.24L4.5,10.266
		C4.171,10.932,0,12.269,0,13.042v1.166H12.32"/>
</g>
</svg>
