<?xml version="1.0" encoding="utf-8"?>
<!-- Generator: Adobe Illustrator 19.0.0, SVG Export Plug-In . SVG Version: 6.00 Build 0)  -->
<svg version="1.1" id="Слой_1" xmlns="http://www.w3.org/2000/svg" xmlns:xlink="http://www.w3.org/1999/xlink" x="0px" y="0px"
	 viewBox="0 0 25 25" style="enable-background:new 0 0 25 25;" xml:space="preserve">
<style type="text/css">
	.st0{fill:#2C3238;}
</style>
<path id="XMLID_2_" class="st0" d="M23.4,17.8l0.7,0.7c1,1,0.9,2.5,0,3.5l-2,2c-0.9,0.9-2.3,1.2-3.5,0.6l-0.4-0.2
	C10.5,20.6,4.4,14.5,0.7,6.8L0.5,6.4c-0.6-1.2-0.3-2.6,0.6-3.5l2-2c1-1,2.5-1,3.5,0L9.6,4c1,1,0.9,2.5,0,3.5l-1,1
	c-0.5,0.5-0.6,1.4-0.2,2l0,0c1.7,2.4,3.8,4.5,6.2,6.2l0,0c0.6,0.4,1.4,0.3,2-0.2l1-1c1-1,2.5-1,3.5,0l0.9,0.9"/>
</svg>
