<?xml version="1.0" encoding="utf-8"?>
<!-- Generator: Adobe Illustrator 16.0.0, SVG Export Plug-In . SVG Version: 6.00 Build 0)  -->
<!DOCTYPE svg PUBLIC "-//W3C//DTD SVG 1.1//EN" "http://www.w3.org/Graphics/SVG/1.1/DTD/svg11.dtd">
<svg version="1.1" id="Слой_1" xmlns="http://www.w3.org/2000/svg" xmlns:xlink="http://www.w3.org/1999/xlink" x="0px" y="0px"
	 width="54.207px" height="82.258px" viewBox="0 0 54.207 82.258" enable-background="new 0 0 54.207 82.258" xml:space="preserve">
<g>
	<defs>
		<rect id="SVGID_1_" width="54.207" height="82.258"/>
	</defs>
	<clipPath id="SVGID_2_">
		<use xlink:href="#SVGID_1_"  overflow="visible"/>
	</clipPath>
	<path clip-path="url(#SVGID_2_)" fill="none" stroke="#2B3137" stroke-width="3" stroke-miterlimit="10" d="M52.707,51.422
		c0,3.611-0.848,7.12-2.417,10.269c-2.128,4.271-5.77,7.602-10.004,9.803L27.18,80.439l-12.801-8.807
		C9.027,68.842,4.705,64.213,2.88,58.46c-0.706-2.227-1.077-4.57-1.077-6.96V13.296c0-2.352,1.701-4.358,4.021-4.743
		c4.264-0.707,8.425-1.93,12.393-3.642L25.2,1.898c1.225-0.529,2.614-0.531,3.841-0.008l7.195,3.071
		c3.942,1.683,8.072,2.883,12.301,3.576l0.141,0.023c2.323,0.38,4.029,2.389,4.029,4.744V51.422z"/>
	
		<line clip-path="url(#SVGID_2_)" fill="none" stroke="#2B3137" stroke-width="3" stroke-miterlimit="10" x1="36.236" y1="4.962" x2="2.281" y2="38.918"/>
	
		<line clip-path="url(#SVGID_2_)" fill="none" stroke="#2B3137" stroke-width="3" stroke-miterlimit="10" x1="28.807" y1="1.773" x2="2.278" y2="28.302"/>
	
		<line clip-path="url(#SVGID_2_)" fill="none" stroke="#2B3137" stroke-width="3" stroke-miterlimit="10" x1="12.886" y1="7.076" x2="2.278" y2="17.684"/>
	
		<line clip-path="url(#SVGID_2_)" fill="none" stroke="#2B3137" stroke-width="3" stroke-miterlimit="10" x1="44.201" y1="7.616" x2="1.061" y2="50.756"/>
	
		<line clip-path="url(#SVGID_2_)" fill="none" stroke="#2B3137" stroke-width="3" stroke-miterlimit="10" x1="51.986" y1="10.449" x2="3.165" y2="59.271"/>
	
		<line clip-path="url(#SVGID_2_)" fill="none" stroke="#2B3137" stroke-width="3" stroke-miterlimit="10" x1="52.566" y1="20.487" x2="6.712" y2="66.342"/>
	
		<line clip-path="url(#SVGID_2_)" fill="none" stroke="#2B3137" stroke-width="3" stroke-miterlimit="10" x1="52.523" y1="31.149" x2="13.083" y2="70.589"/>
	
		<line clip-path="url(#SVGID_2_)" fill="none" stroke="#2B3137" stroke-width="3" stroke-miterlimit="10" x1="52.438" y1="41.853" x2="19.276" y2="75.015"/>
	
		<line clip-path="url(#SVGID_2_)" fill="none" stroke="#2B3137" stroke-width="3" stroke-miterlimit="10" x1="53.098" y1="51.812" x2="25.825" y2="79.085"/>
	<path clip-path="url(#SVGID_2_)" fill="#FFFFFF" d="M17.558,37.631c0-0.105,0.002-3.497,0.005-3.601
		c0.165-5.242,4.467-9.441,9.75-9.441c5.26,0,9.548,4.164,9.747,9.375c0.005,0.126,0.007,3.54,0.007,3.667"/>
	<path clip-path="url(#SVGID_2_)" fill="none" stroke="#2B3137" stroke-width="3" stroke-miterlimit="10" d="M17.558,37.631
		c0-0.105,0.002-3.497,0.005-3.601c0.165-5.242,4.467-9.441,9.75-9.441c5.26,0,9.548,4.164,9.747,9.375
		c0.005,0.126,0.007,3.54,0.007,3.667"/>
	<path clip-path="url(#SVGID_2_)" fill="#FFFFFF" d="M37.896,42.76c0,5.845-4.738,10.584-10.584,10.584
		c-5.845,0-10.583-4.739-10.583-10.584s4.739-10.584,10.583-10.584C33.157,32.176,37.896,36.915,37.896,42.76"/>
	
		<circle clip-path="url(#SVGID_2_)" fill="none" stroke="#2B3137" stroke-width="3" stroke-miterlimit="10" cx="27.312" cy="42.76" r="10.584"/>
	<path clip-path="url(#SVGID_2_)" fill="none" stroke="#2B3137" stroke-width="3" stroke-miterlimit="10" d="M30.632,41.562
		c0-1.83-1.483-3.313-3.313-3.313c-1.831,0-3.313,1.483-3.313,3.313c0,1.268,0.713,2.368,1.759,2.925
		c-0.004,0.042-0.013,0.082-0.013,0.124v1.13c0,0.849,0.694,1.543,1.543,1.543c0.849,0,1.544-0.694,1.544-1.543v-1.13
		c0-0.035-0.008-0.068-0.01-0.103C29.897,43.959,30.632,42.847,30.632,41.562z"/>
</g>
</svg>
