<?xml version="1.0" encoding="utf-8"?>
<!-- Generator: Adobe Illustrator 16.0.0, SVG Export Plug-In . SVG Version: 6.00 Build 0)  -->
<!DOCTYPE svg PUBLIC "-//W3C//DTD SVG 1.1//EN" "http://www.w3.org/Graphics/SVG/1.1/DTD/svg11.dtd">
<svg version="1.1" id="Слой_1" xmlns="http://www.w3.org/2000/svg" xmlns:xlink="http://www.w3.org/1999/xlink" x="0px" y="0px"
	 width="118.628px" height="80.322px" viewBox="0 0 118.628 80.322" enable-background="new 0 0 118.628 80.322"
	 xml:space="preserve">
<g>
	<defs>
		<rect id="SVGID_1_" width="118.628" height="80.322"/>
	</defs>
	<clipPath id="SVGID_2_">
		<use xlink:href="#SVGID_1_"  overflow="visible"/>
	</clipPath>
	
		<path clip-path="url(#SVGID_2_)" fill="none" stroke="#2B3137" stroke-width="3" stroke-linejoin="round" stroke-miterlimit="10" d="
		M37.126,20.937c-1.617-2.045-2.582-4.628-2.582-7.437c0-6.627,5.373-12,12-12c6.628,0,12,5.373,12,12s-5.372,12-12,12"/>
	
		<path clip-path="url(#SVGID_2_)" fill="none" stroke="#2B3137" stroke-width="3" stroke-linejoin="round" stroke-miterlimit="10" d="
		M27.632,44.412l16.915-16.915c1.866-1.866,2.176-4.037-0.244-6.456c-2.419-2.42-4.59-2.11-6.456-0.244l-25.059,25.06"/>
	
		<path clip-path="url(#SVGID_2_)" fill="none" stroke="#2B3137" stroke-width="3" stroke-linejoin="round" stroke-miterlimit="10" d="
		M37.099,59.308l6.081-6.081c2.572-2.572,3.62-4.825,1.556-7.321c-1.746-2.112-3.468-2.297-3.468-2.297"/>
	
		<path clip-path="url(#SVGID_2_)" fill="none" stroke="#2B3137" stroke-width="3" stroke-linejoin="round" stroke-miterlimit="10" d="
		M44.188,52.218c3.934,2.805,3.149,5.714,0.383,8.854c-2.767,3.139-4.304,4.813-8.029,8.538c-8.988,8.988-19.082,9.212-19.082,9.212
		"/>
	
		<path clip-path="url(#SVGID_2_)" fill="none" stroke="#2B3137" stroke-width="3" stroke-linejoin="round" stroke-miterlimit="10" d="
		M22.984,35.089c-0.248-0.465-1.175-1.59-1.917-2.333c-1.68-1.679-4.27-1.614-6.901,0.506c0,0-2.799,2.131-6.082,5.309
		C3.82,42.699,2.702,45.31,1.961,49.389C0.943,54.99,1.929,63.514,1.929,63.514"/>
	
		<path clip-path="url(#SVGID_2_)" fill="none" stroke="#2B3137" stroke-width="3" stroke-linejoin="round" stroke-miterlimit="10" d="
		M33.703,51.74l5.638-5.638c2.571-2.571,4.186-5.578,1.536-8.227c-2.249-2.249-3.931-2.76-3.931-2.76"/>
	
		<path clip-path="url(#SVGID_2_)" fill="none" stroke="#2B3137" stroke-width="3" stroke-linejoin="round" stroke-miterlimit="10" d="
		M58.045,10.919h56.583c1.375,0,2.5,1.125,2.5,2.5s-1.125,2.5-2.5,2.5H58.211"/>
	
		<path clip-path="url(#SVGID_2_)" fill="none" stroke="#2B3137" stroke-width="3" stroke-linejoin="round" stroke-miterlimit="10" d="
		M34.378,15.919h-23c-1.375,0-2.5-1.125-2.5-2.5s1.125-2.5,2.5-2.5h23.166"/>
</g>
</svg>
