<?xml version="1.0" encoding="utf-8"?>
<!-- Generator: Adobe Illustrator 16.0.0, SVG Export Plug-In . SVG Version: 6.00 Build 0)  -->
<!DOCTYPE svg PUBLIC "-//W3C//DTD SVG 1.1//EN" "http://www.w3.org/Graphics/SVG/1.1/DTD/svg11.dtd">
<svg version="1.1" id="Слой_1" xmlns="http://www.w3.org/2000/svg" xmlns:xlink="http://www.w3.org/1999/xlink" x="0px" y="0px"
	 width="113.919px" height="93.626px" viewBox="0 0 113.919 93.626" enable-background="new 0 0 113.919 93.626"
	 xml:space="preserve">
<g>
	<defs>
		<rect id="SVGID_1_" y="0" width="113.919" height="93.626"/>
	</defs>
	<clipPath id="SVGID_2_">
		<use xlink:href="#SVGID_1_"  overflow="visible"/>
	</clipPath>
	
		<path clip-path="url(#SVGID_2_)" fill="none" stroke="#2B3137" stroke-width="3" stroke-linejoin="round" stroke-miterlimit="10" d="
		M49.466,49.322H6.783c-2.918,0-5.283-2.365-5.283-5.283V20.325c0-2.918,2.365-5.283,5.283-5.283h42.683
		c2.918,0,5.283,2.365,5.283,5.283v23.713C54.749,46.957,52.384,49.322,49.466,49.322z"/>
	
		<line clip-path="url(#SVGID_2_)" fill="none" stroke="#2B3137" stroke-width="3" stroke-linejoin="round" stroke-miterlimit="10" x1="47.256" y1="57.314" x2="8.992" y2="57.314"/>
	
		<line clip-path="url(#SVGID_2_)" fill="none" stroke="#2B3137" stroke-width="3" stroke-linejoin="round" stroke-miterlimit="10" x1="28.125" y1="49.667" x2="28.125" y2="56.642"/>
	
		<path clip-path="url(#SVGID_2_)" fill="none" stroke="#2B3137" stroke-width="3" stroke-linejoin="round" stroke-miterlimit="10" d="
		M106.825,32.847H68.292c-3.089,0-5.594-2.505-5.594-5.594V7.095c0-3.09,2.505-5.595,5.594-5.595h38.533
		c3.09,0,5.594,2.505,5.594,5.595v20.158C112.419,30.342,109.915,32.847,106.825,32.847z"/>
	
		<circle clip-path="url(#SVGID_2_)" fill="none" stroke="#2B3137" stroke-width="3" stroke-linejoin="round" stroke-miterlimit="10" cx="101.265" cy="17.308" r="4.741"/>
	
		<line clip-path="url(#SVGID_2_)" fill="none" stroke="#2B3137" stroke-width="3" stroke-linejoin="round" stroke-miterlimit="10" x1="111.766" y1="17.058" x2="106.006" y2="17.058"/>
	
		<path clip-path="url(#SVGID_2_)" fill="none" stroke="#2B3137" stroke-width="3" stroke-linejoin="round" stroke-miterlimit="10" d="
		M92.307,92.126H68.487c-2.814,0-5.096-2.281-5.096-5.096v-41c0-2.814,2.281-5.096,5.096-5.096h23.819
		c2.813,0,5.096,2.282,5.096,5.096v41C97.402,89.845,95.12,92.126,92.307,92.126z"/>
	
		<line clip-path="url(#SVGID_2_)" fill="none" stroke="#2B3137" stroke-width="3" stroke-linejoin="round" stroke-miterlimit="10" x1="73.276" y1="46.311" x2="77.764" y2="46.311"/>
	
		<line clip-path="url(#SVGID_2_)" fill="none" stroke="#2B3137" stroke-width="3" stroke-linejoin="round" stroke-miterlimit="10" x1="63.448" y1="50.692" x2="96.948" y2="50.692"/>
	
		<line clip-path="url(#SVGID_2_)" fill="none" stroke="#2B3137" stroke-width="3" stroke-linejoin="round" stroke-miterlimit="10" x1="63.448" y1="84.713" x2="96.948" y2="84.713"/>
</g>
</svg>
