<?xml version="1.0" encoding="utf-8"?>
<!-- Generator: Adobe Illustrator 19.0.0, SVG Export Plug-In . SVG Version: 6.00 Build 0)  -->
<svg version="1.1" id="Слой_1" xmlns="http://www.w3.org/2000/svg" xmlns:xlink="http://www.w3.org/1999/xlink" x="0px" y="0px"
	 viewBox="0 0 108 102" style="enable-background:new 0 0 108 102;" xml:space="preserve">
<style type="text/css">
	.st0{fill:none;stroke:#2C3238;stroke-width:3;stroke-linecap:round;stroke-linejoin:round;stroke-miterlimit:10;}
	.st1{fill:#2C3238;}
	.st2{fill:none;stroke:#2C3238;stroke-width:3;stroke-miterlimit:10;}
	.st3{fill:#FFFFFF;stroke:#2C3238;stroke-width:3;stroke-linecap:round;stroke-linejoin:round;stroke-miterlimit:10;}
</style>
<path id="XMLID_8_" class="st0" d="M95.8,100.2H56.3c-5.7,0-10.4-4.6-10.4-10.4V12.2c0-5.7,4.6-10.4,10.4-10.4h39.5
	c5.7,0,10.4,4.6,10.4,10.4v77.6C106.2,95.5,101.6,100.2,95.8,100.2z"/>
<path id="XMLID_7_" class="st1" d="M106.2,82.2v7.6c0,5.7-4.6,10.4-10.4,10.4H56.3c-5.7,0-10.4-4.6-10.4-10.4v-7.6"/>
<line id="XMLID_6_" class="st0" x1="46" y1="83.8" x2="105.5" y2="83.8"/>
<line id="XMLID_5_" class="st2" x1="63.5" y1="13.1" x2="89.1" y2="13.1"/>
<path id="XMLID_4_" class="st3" d="M59.6,73.8H3.8c-1,0-1.8-0.8-1.8-1.8V36c0-1,0.8-1.8,1.8-1.8h55.8c1,0,1.8,0.8,1.8,1.8v36
	C61.4,72.9,60.6,73.8,59.6,73.8z"/>
<line id="XMLID_3_" class="st3" x1="29.3" y1="62.2" x2="36.9" y2="62.2"/>
<rect id="XMLID_2_" x="1.8" y="43.7" class="st1" width="59" height="10.3"/>
</svg>
