<?xml version="1.0" encoding="utf-8"?>
<!-- Generator: Adobe Illustrator 19.0.0, SVG Export Plug-In . SVG Version: 6.00 Build 0)  -->
<svg version="1.1" id="Слой_1" xmlns="http://www.w3.org/2000/svg" xmlns:xlink="http://www.w3.org/1999/xlink" x="0px" y="0px"
	 viewBox="0 0 175.8 175.8" style="enable-background:new 0 0 175.8 175.8;" xml:space="preserve">
<style type="text/css">
	.st0{fill:#2C3238;}
</style>
<g id="XMLID_4_">
	<g id="XMLID_28_">
		<path id="XMLID_29_" class="st0" d="M87.9,3c46.8,0,84.9,38.1,84.9,84.9s-38.1,84.9-84.9,84.9S3,134.7,3,87.9S41.1,3,87.9,3
			 M87.9,0C39.3,0,0,39.3,0,87.9s39.3,87.9,87.9,87.9s87.9-39.3,87.9-87.9S136.4,0,87.9,0L87.9,0z"/>
	</g>
</g>
<g id="XMLID_3_">
	<path id="XMLID_17_" class="st0" d="M15.1,56.6c2.8,0.8-6.6,2-5.8,4.8c0.8,2.8-5.4,18.8-2.8,17.4c17.7-10,17.7,16.5,25.3,15.8
		c2.2-0.2,3.8-2.1,4.5-4.2c0.6-1.7,1-3.5,1.3-5.2c0.7-3.9,4.8-6.3,8.4-4.8c1,0.4,2,0.9,2.8,1.6c2.4,1.9,5.9,1.6,8.1-0.5
		c1.1-1.1,2.1-2.2,2.4-3.7c0.4-2.2-0.7-4.5-2.3-6.1c-1.6-1.6-3.6-2.8-5.3-4.3c-0.7-0.6-1.5-1.4-1.7-2.4c-0.3-1.6,0.8-3,1.9-4.2
		c1.7-1.8,3.6-3.4,5.5-4.9c3.7-2.8,3.5-8.4-0.6-10.5c-4.2-2.2-9.3-3.1-14-2.6c-8,0.9-15.3,5-22.2,9.2"/>
</g>
<g id="XMLID_2_">
	<path id="XMLID_18_" class="st0" d="M125.5,151.6c-1.7-0.5-3.8,0.6-5.2-0.4c-1.5-1.1-0.8-3.4-1-5.2c-0.6-4.4-6.5-5.4-10.9-5
		s-10.1,0.1-11.6-4.1c-0.4-1.2-0.3-2.5-0.8-3.8c-1.4-3.9-7.4-5.2-7.6-9.3c-0.1-2.9,2.9-4.9,5.5-6.3s9.7,3.7,15.5,3.5
		s11.1-3.3,16.6-5.1c2.7-0.9,5.7-1.6,7.5-3.9c2-2.6,1.6-6.3,2.8-9.3c0.9-2.2,2.7-3.9,4.4-5.5c4.7-4.4,10.5-9,17-6.4
		c2.9,1.2,5.2,3.7,6.4,6.6c2.6,6.1,1.2,12.6-0.6,18.7c-2.8,9.4-6.8,18.7-13.2,26.2c-6.4,7.5-15.6,12.9-25.4,13.2"/>
</g>
<g id="XMLID_1_">
	<path id="XMLID_19_" class="st0" d="M76.5,10.4C79,12.2,87.7,11.3,92,25.1c3.9,12.5,4.2,18.6,7.9,20.6c0.6,0.3,1.3,0.7,1.7,1.3
		c0.5,0.7,0.5,1.7,0.5,2.5c-0.1,3-0.1,6.6,2.3,8.5c0.6,0.5,1.4,0.9,1.8,1.6c0.4,0.9,0,2-0.2,3c-0.2,0.8-0.2,1.7-0.1,2.5
		c0.3,2.1-1.3,4.1-3.4,4.2c-1.3,0-2.5-0.1-3.8-0.4c-0.6-0.1-1.1-0.3-1.6-0.7c-0.7-0.6-0.9-1.4-1.3-2.2c-1.4-3.3-4.1-6.1-7.4-7.5
		c-0.6-0.3-1.3-0.5-2-0.3c-0.6,0.2-1.1,0.7-1.5,1.2c-1.3,1.7-2.4,3.5-3.2,5.4c-1.2,2.9-5,4-7.5,2.1c-0.8-0.6-1.4-1.4-1.6-2.5
		c-0.2-0.7-0.2-1.4,0-2c0.8-4.1-1.6-8.1-5.8-8.4l-5.5-0.4c-0.3,0-0.7,0-1,0.1c-0.5,0.2-0.8,0.6-1.1,1.1c-0.9,1.3-1.8,2.7-2.6,4
		c-0.5,0.7-1,1.5-1.8,1.8c-0.8,0.3-1.7,0.1-2.5-0.3c-3.2-1.3-5.9-3.8-9.3-4.3c-2.4-0.4-4.9,0.4-7.2,1s-4.9,1.2-7.2,0.5
		s-4.4-3.2-3.7-5.5c0.5-1.7-15.2,1.6-13.8,0.7c3.3-2.2,20.4-11.5,23.7-13.7c7.7-5.1-1.4-16.7,7.6-18.2c8-1.3,13.8-6.3,21.6-8.2"/>
</g>
</svg>
