<?xml version="1.0" encoding="utf-8"?>
<!-- Generator: Adobe Illustrator 19.0.0, SVG Export Plug-In . SVG Version: 6.00 Build 0)  -->
<svg version="1.1" id="Слой_1" xmlns="http://www.w3.org/2000/svg" xmlns:xlink="http://www.w3.org/1999/xlink" x="0px" y="0px"
	 viewBox="0 0 128 96" style="enable-background:new 0 0 128 96;" xml:space="preserve">
<style type="text/css">
	.st0{fill:#2C3238;}
	.st1{fill:none;stroke:#2C3238;stroke-width:3;stroke-linecap:round;stroke-linejoin:round;stroke-miterlimit:10;}
</style>
<path id="XMLID_2_" class="st0" d="M99.5,96c3.1,0,5.2-3.1,4.1-6c0,0-3-8.1-3.2-8.5C97.2,76.6,74.1,69,72.2,65.2l-0.9-1.8
	c5.8-4.7,10.5-13.8,12.8-23.6c0.5,0.4,3.8-3,3.8-7.7c0-4.6-0.1-8.3-2.2-8.3C84.8,7.2,74.9,0,62.7,0c-12.2,0-22.2,7.3-23,24.2
	c-0.1,0-0.2-0.1-0.3-0.1c-2.1,0-2.2,3.7-2.2,8.4s3.6,7.9,4.1,7.3C43.5,49.2,48,58,53.5,62.9l-1.2,2.5c-1.9,3.8-24.5,11.3-27.5,16.2
	c-0.2,0.4-3.2,8.5-3.2,8.5c-1.1,2.9,1,6,4.1,6H99.5z"/>
<path id="XMLID_1_" class="st0" d="M31,70.4c1.2,0,2.1-1.2,1.6-2.4c0,0-1.2-3.2-1.3-3.4c-1.3-1.9-10.4-4.9-11.1-6.5l-0.4-0.7
	c2.3-1.9,4.1-5.5,5.1-9.3c0.2,0.2,1.5-1.2,1.5-3c0-1.8,0-3.3-0.9-3.3c-0.4-6.6-4.3-9.4-9.1-9.4c-4.8,0-8.8,2.9-9.1,9.6
	c0,0-0.1,0-0.1,0c-0.9,0-0.9,1.5-0.9,3.3c0,1.8,1.4,3.1,1.6,2.9c0.9,3.8,2.7,7.3,4.9,9.2l-0.5,1c-0.8,1.5-9.7,4.5-10.9,6.4
	c-0.1,0.1-1.3,3.4-1.3,3.4c-0.4,1.1,0.4,2.4,1.6,2.4H31z"/>
<path id="XMLID_4_" class="st1" d="M124.6,69c1.5,0,2.5-1.5,2-2.9c0,0-1.4-3.9-1.6-4.1c-1.5-2.4-12.6-6-13.5-7.8l-0.4-0.9
	c2.8-2.3,5-6.6,6.2-11.3c0.2,0.2,1.8-1.5,1.8-3.7c0-2.2,0-4-1.1-4c-0.4-8-5.2-11.4-11-11.4c-5.9,0-10.7,3.5-11.1,11.6
	c-0.1,0-0.1,0-0.2,0c-1,0-1.1,1.8-1.1,4s1.7,3.8,2,3.5c1.1,4.6,3.2,8.8,5.9,11.1l-0.6,1.2c-0.9,1.8-11.8,5.4-13.2,7.8
	c-0.1,0.2-1.5,4.1-1.5,4.1c-0.5,1.4,0.5,2.9,2,2.9H124.6z"/>
</svg>
