<?xml version="1.0" encoding="utf-8"?>
<!-- Generator: Adobe Illustrator 19.0.0, SVG Export Plug-In . SVG Version: 6.00 Build 0)  -->
<svg version="1.1" id="Слой_1" xmlns="http://www.w3.org/2000/svg" xmlns:xlink="http://www.w3.org/1999/xlink" x="0px" y="0px"
	 viewBox="0 0 63 51" style="enable-background:new 0 0 63 51;" xml:space="preserve">
<style type="text/css">
	.st0{fill:none;stroke:#2C3238;stroke-width:3;stroke-miterlimit:10;stroke-dasharray:7.7458,5.8093;}
	.st1{fill:none;stroke:#2C3238;stroke-width:3;stroke-miterlimit:10;}
</style>
<g id="XMLID_2_">
	<g id="XMLID_5_">
		<g id="XMLID_6_">
			<path id="XMLID_13_" class="st0" d="M30.3,30.5l30.3-17.1c1.3-0.7,1.1-2.6-0.2-3.1L37.7,1.7c-1.4-0.5-2.9-0.4-4.2,0.2L2.5,18
				c-1.3,0.7-1.2,2.6,0.1,3.1l23.1,9.6C27.2,31.4,28.9,31.3,30.3,30.5z"/>
		</g>
	</g>
	<g id="XMLID_3_">
		<path id="XMLID_4_" class="st1" d="M30.3,48.1L60.5,31c1.3-0.7,1.1-2.6-0.2-3.1l-22.6-8.6c-1.4-0.5-2.9-0.4-4.2,0.2l-31,16.1
			c-1.3,0.7-1.2,2.6,0.1,3.1l23.1,9.6C27.2,49,28.9,48.9,30.3,48.1z"/>
	</g>
</g>
</svg>
