<?xml version="1.0" encoding="utf-8"?>
<!-- Generator: Adobe Illustrator 19.0.0, SVG Export Plug-In . SVG Version: 6.00 Build 0)  -->
<svg version="1.1" id="Слой_1" xmlns="http://www.w3.org/2000/svg" xmlns:xlink="http://www.w3.org/1999/xlink" x="0px" y="0px"
	 viewBox="0 0 48 51" style="enable-background:new 0 0 48 51;" xml:space="preserve">
<style type="text/css">
	.st0{fill:none;stroke:#2C3238;stroke-width:2;stroke-linecap:round;stroke-linejoin:round;stroke-miterlimit:10;}
	.st1{fill:#2C3238;stroke:#2C3238;stroke-width:2;stroke-linecap:round;stroke-linejoin:round;stroke-miterlimit:10;}
</style>
<path id="XMLID_3_" class="st0" d="M33,1.1c-3.4,0-6.6,1.3-9,3.4c-2.4-2.1-5.6-3.4-9-3.4C7.4,1.1,1.3,7.3,1.3,14.8
	c0,15.4,20.3,37,22.8,34.9c2.4,2.1,22.8-19.7,22.8-34.9C46.8,7.3,40.6,1.1,33,1.1z"/>
<path id="XMLID_2_" class="st1" d="M27.7,14.6c-1.4,0-2.7,0.5-3.7,1.4c-1-0.9-2.3-1.4-3.7-1.4c-3.1,0-5.6,2.5-5.6,5.6
	c0,6.3,8.3,15,9.3,14.2c1,0.9,9.3-8,9.3-14.2C33.3,17.1,30.7,14.6,27.7,14.6z"/>
</svg>
