<?xml version="1.0" encoding="utf-8"?>
<!-- Generator: Adobe Illustrator 16.0.0, SVG Export Plug-In . SVG Version: 6.00 Build 0)  -->
<!DOCTYPE svg PUBLIC "-//W3C//DTD SVG 1.1//EN" "http://www.w3.org/Graphics/SVG/1.1/DTD/svg11.dtd">
<svg version="1.1" id="Слой_1" xmlns="http://www.w3.org/2000/svg" xmlns:xlink="http://www.w3.org/1999/xlink" x="0px" y="0px"
	 width="58.337px" height="50.898px" viewBox="0 0 58.337 50.898" enable-background="new 0 0 58.337 50.898" xml:space="preserve">
<g>
	<defs>
		<rect id="SVGID_1_" y="0" width="58.337" height="50.898"/>
	</defs>
	<clipPath id="SVGID_2_">
		<use xlink:href="#SVGID_1_"  overflow="visible"/>
	</clipPath>
	
		<path clip-path="url(#SVGID_2_)" fill="none" stroke="#2B3137" stroke-width="2" stroke-linecap="round" stroke-linejoin="round" stroke-miterlimit="10" d="
		M39.496,49.898H2.831C1.819,49.898,1,49.079,1,48.068V24.844c0-1.011,0.82-1.831,1.831-1.831h36.666c1.012,0,1.83,0.82,1.83,1.831
		v23.224C41.326,49.079,40.508,49.898,39.496,49.898z"/>
	
		<line clip-path="url(#SVGID_2_)" fill="none" stroke="#2B3137" stroke-width="2" stroke-linecap="round" stroke-linejoin="round" stroke-miterlimit="10" x1="5.029" y1="42.061" x2="13.47" y2="42.061"/>
	
		<line clip-path="url(#SVGID_2_)" fill="none" stroke="#2B3137" stroke-width="2" stroke-linecap="round" stroke-linejoin="round" stroke-miterlimit="10" x1="19.507" y1="42.061" x2="24.684" y2="42.061"/>
	
		<line clip-path="url(#SVGID_2_)" fill="none" stroke="#2B3137" stroke-width="2" stroke-linecap="round" stroke-linejoin="round" stroke-miterlimit="10" x1="40.908" y1="36.465" x2="1.019" y2="36.465"/>
	
		<line clip-path="url(#SVGID_2_)" fill="none" stroke="#2B3137" stroke-width="2" stroke-linecap="round" stroke-linejoin="round" stroke-miterlimit="10" x1="1.019" y1="29.504" x2="40.908" y2="29.504"/>
	
		<path clip-path="url(#SVGID_2_)" fill="none" stroke="#2B3137" stroke-width="2" stroke-linecap="round" stroke-linejoin="round" stroke-miterlimit="10" d="
		M17.01,22.494v-4.336V2.83c0-1.011,0.819-1.83,1.83-1.83h36.667c1.011,0,1.83,0.819,1.83,1.83v23.224c0,1.011-0.819,1.83-1.83,1.83
		H45.502h-4.003"/>
	
		<rect x="22.166" y="7.162" clip-path="url(#SVGID_2_)" fill="none" stroke="#2B3137" stroke-width="2" stroke-linecap="round" stroke-linejoin="round" stroke-miterlimit="10" width="10.5" height="7.667"/>
</g>
</svg>
