<?xml version="1.0" encoding="utf-8"?>
<!-- Generator: Adobe Illustrator 16.0.0, SVG Export Plug-In . SVG Version: 6.00 Build 0)  -->
<!DOCTYPE svg PUBLIC "-//W3C//DTD SVG 1.1//EN" "http://www.w3.org/Graphics/SVG/1.1/DTD/svg11.dtd">
<svg version="1.1" id="Слой_1" xmlns="http://www.w3.org/2000/svg" xmlns:xlink="http://www.w3.org/1999/xlink" x="0px" y="0px"
	 width="79.69px" height="70.646px" viewBox="0 0 79.69 70.646" enable-background="new 0 0 79.69 70.646" xml:space="preserve">
<g>
	<defs>
		<rect id="SVGID_1_" width="79.69" height="70.646"/>
	</defs>
	<clipPath id="SVGID_2_">
		<use xlink:href="#SVGID_1_"  overflow="visible"/>
	</clipPath>
	
		<path clip-path="url(#SVGID_2_)" fill="none" stroke="#2B3137" stroke-width="3" stroke-linecap="round" stroke-miterlimit="10" d="
		M41.653,30.664l3.136-5.377l4.64-7.957c1.828-3.135,5.184-5.063,8.813-5.063h18.194"/>
	<polygon clip-path="url(#SVGID_2_)" fill="#2B3137" points="66.496,24.536 64.45,22.339 75.285,12.269 64.45,2.197 66.496,0 
		79.69,12.269 	"/>
	
		<path clip-path="url(#SVGID_2_)" fill="none" stroke="#2B3137" stroke-width="3" stroke-linecap="round" stroke-miterlimit="10" d="
		M1.5,58.376h18.133c3.629,0,6.986-1.928,8.814-5.063l4.653-7.98l3.082-5.286"/>
	<path clip-path="url(#SVGID_2_)" fill="none" stroke="#2B3137" stroke-width="3" stroke-miterlimit="10" d="M1.5,12.267h18.133
		c3.629,0,6.986,1.928,8.814,5.063l4.622,7.927l11.693,20.054l4.667,8.002c1.828,3.136,5.185,5.063,8.813,5.063h18.194"/>
	<polygon clip-path="url(#SVGID_2_)" fill="#2B3137" points="66.496,70.646 64.45,68.449 75.285,58.379 64.45,48.307 66.496,46.11 
		79.69,58.379 	"/>
</g>
</svg>
