<?xml version="1.0" encoding="utf-8"?>
<!-- Generator: Adobe Illustrator 16.0.0, SVG Export Plug-In . SVG Version: 6.00 Build 0)  -->
<!DOCTYPE svg PUBLIC "-//W3C//DTD SVG 1.1//EN" "http://www.w3.org/Graphics/SVG/1.1/DTD/svg11.dtd">
<svg version="1.1" id="Слой_1" xmlns="http://www.w3.org/2000/svg" xmlns:xlink="http://www.w3.org/1999/xlink" x="0px" y="0px"
	 width="77.669px" height="62.51px" viewBox="0 0 77.669 62.51" enable-background="new 0 0 77.669 62.51" xml:space="preserve">
<g>
	<defs>
		<rect id="SVGID_1_" y="0" width="77.669" height="62.51"/>
	</defs>
	<clipPath id="SVGID_2_">
		<use xlink:href="#SVGID_1_"  overflow="visible"/>
	</clipPath>
	
		<path clip-path="url(#SVGID_2_)" fill="none" stroke="#2B3137" stroke-width="3" stroke-linejoin="round" stroke-miterlimit="10" d="
		M27.632,26.6L44.547,9.685c1.866-1.866,2.176-4.037-0.244-6.456c-2.419-2.42-4.59-2.11-6.456-0.244L12.788,28.044"/>
	
		<path clip-path="url(#SVGID_2_)" fill="none" stroke="#2B3137" stroke-width="3" stroke-linejoin="round" stroke-miterlimit="10" d="
		M37.099,41.497l6.081-6.081c2.572-2.572,3.62-4.825,1.556-7.321c-1.745-2.112-3.468-2.297-3.468-2.297"/>
	
		<path clip-path="url(#SVGID_2_)" fill="none" stroke="#2B3137" stroke-width="3" stroke-linejoin="round" stroke-miterlimit="10" d="
		M44.188,34.407c3.934,2.805,3.148,5.714,0.383,8.854c-2.768,3.139-4.305,4.813-8.029,8.538C27.554,60.787,17.46,61.01,17.46,61.01"
		/>
	
		<path clip-path="url(#SVGID_2_)" fill="none" stroke="#2B3137" stroke-width="3" stroke-linejoin="round" stroke-miterlimit="10" d="
		M22.984,17.278c-0.248-0.465-1.175-1.59-1.917-2.333c-1.68-1.679-4.27-1.614-6.901,0.506c0,0-2.799,2.131-6.082,5.309
		c-4.264,4.127-5.382,6.739-6.123,10.818c-1.018,5.601-0.032,14.125-0.032,14.125"/>
	
		<path clip-path="url(#SVGID_2_)" fill="none" stroke="#2B3137" stroke-width="3" stroke-linejoin="round" stroke-miterlimit="10" d="
		M33.703,33.928l5.638-5.638c2.571-2.571,4.187-5.578,1.536-8.227c-2.249-2.249-3.931-2.76-3.931-2.76"/>
	
		<polyline clip-path="url(#SVGID_2_)" fill="none" stroke="#2B3137" stroke-width="4" stroke-linecap="round" stroke-linejoin="round" stroke-miterlimit="10" points="
		57.706,11.928 63.865,18.087 75.669,6.283 	"/>
</g>
</svg>
