<?xml version="1.0" encoding="utf-8"?>
<!-- Generator: Adobe Illustrator 16.0.0, SVG Export Plug-In . SVG Version: 6.00 Build 0)  -->
<!DOCTYPE svg PUBLIC "-//W3C//DTD SVG 1.1//EN" "http://www.w3.org/Graphics/SVG/1.1/DTD/svg11.dtd">
<svg version="1.1" id="Слой_1" xmlns="http://www.w3.org/2000/svg" xmlns:xlink="http://www.w3.org/1999/xlink" x="0px" y="0px"
	 width="761.396px" height="182.333px" viewBox="0 0 761.396 182.333" enable-background="new 0 0 761.396 182.333"
	 xml:space="preserve">
<polygon fill="#FFFFFF" points="406.606,28.261 366.14,28.261 366.14,153.872 349.678,153.872 349.678,28.261 309.115,28.261 
	309.115,13.367 406.606,13.367 "/>
<polygon fill="#FFFFFF" points="503.117,153.872 428.652,153.872 428.652,13.367 499.884,13.367 499.884,28.261 445.112,28.261 
	445.112,74.998 495.867,74.998 495.867,89.892 445.112,89.892 445.112,138.979 503.117,138.979 "/>
<g>
	<defs>
		<rect id="SVGID_1_" width="761.396" height="182.333"/>
	</defs>
	<clipPath id="SVGID_2_">
		<use xlink:href="#SVGID_1_"  overflow="visible"/>
	</clipPath>
	<path clip-path="url(#SVGID_2_)" fill="#FFFFFF" d="M627.946,153.872h-22.928l-54.38-64.178c-1.438-1.763-2.646-3.461-3.625-5.094
		h-0.393v69.271h-16.46V13.367h16.46v66.039h0.393c0.914-1.371,2.121-2.972,3.625-4.801l52.616-61.238h20.478l-60.258,67.509
		L627.946,153.872z"/>
	<path clip-path="url(#SVGID_2_)" fill="#FFFFFF" d="M761.396,81.856c0,22.994-6.14,41.219-18.42,54.674
		c-12.086,13.194-28.284,19.792-48.599,19.792c-20.12,0-36.221-6.728-48.305-20.185c-11.693-13.063-17.539-30.015-17.539-50.853
		c0-22.078,5.846-39.812,17.539-53.204c12.214-14.043,29.133-21.065,50.754-21.065c19.335,0,34.931,6.532,46.786,19.596
		C755.468,43.677,761.396,60.758,761.396,81.856 M744.151,84.012c0-18.747-4.443-33.248-13.325-43.504
		c-8.559-9.798-20.316-14.697-35.273-14.697c-14.697,0-26.668,5.357-35.91,16.069c-9.244,10.713-13.864,24.692-13.864,41.936
		c0,17.507,4.571,31.55,13.717,42.132c8.884,10.321,20.511,15.48,34.882,15.48c15.153,0,27.141-4.864,35.959-14.6
		C739.547,116.705,744.151,102.432,744.151,84.012"/>
	<path clip-path="url(#SVGID_2_)" fill="#FFFFFF" d="M168.565,26.647c0.038-0.027,0.077-0.054,0.116-0.08
		c3.738-2.557,4.157-7.849,0.831-10.923C158.887,5.821,144.745,0,129.666,0c-24.245,0-46.063,15.053-54.739,37.592l8.127,4.689
		l2.366,6.081c0.855-1.509,1.601-3.096,2.199-4.766C93.96,25.893,110.857,14,129.666,14c11.481,0,22.248,4.433,30.337,11.912
		C162.362,28.092,165.922,28.473,168.565,26.647 M58.666,153.333C34.037,153.333,14,133.296,14,108.666
		c0-18.452,11.247-34.327,27.247-41.129c3.179-1.351,4.75-4.907,3.833-8.237c-0.012-0.046-0.025-0.091-0.037-0.136
		c-1.086-4.019-5.546-6.106-9.373-4.469C14.718,63.657,0,84.475,0,108.666c0,32.349,26.317,58.667,58.666,58.667
		c0.12,0,1.248,0,3.207,0c3.812,0,6.892-3.099,6.888-6.912c0-0.058,0-0.117,0-0.176c0.004-3.813-3.076-6.912-6.888-6.912
		C59.913,153.333,58.785,153.333,58.666,153.333 M202.733,50.054l-10.287,12.8c2.636,0.737,5.388,1.149,8.21,1.15h0.632
		c24.291,0.329,44.045,20.357,44.045,44.662c0,24.168-19.65,44.201-43.708,44.658c-0.735,0.002-33.096,0.005-66.84,0.006
		c-3.813,0.001-6.884,3.1-6.881,6.913c0,0.058,0,0.117,0,0.176c-0.003,3.813,3.069,6.912,6.881,6.912
		c34.092-0.002,66.798-0.005,67.011-0.008c15.432-0.292,29.895-6.524,40.723-17.546c10.843-11.037,16.814-25.638,16.814-41.111
		C259.333,77.164,234.06,51.152,202.733,50.054"/>
	<path clip-path="url(#SVGID_2_)" fill="#FFFFFF" d="M74,43.333c4.418,0,8,3.582,8,8s-3.582,8-8,8s-8-3.582-8-8
		S69.582,43.333,74,43.333 M74,29.333c-12.131,0-22,9.869-22,22s9.869,22,22,22s22-9.869,22-22S86.13,29.333,74,29.333"/>
	<path clip-path="url(#SVGID_2_)" fill="#FFFFFF" d="M185.5,43.333c4.418,0,8,3.582,8,8s-3.582,8-8,8s-8-3.582-8-8
		S181.082,43.333,185.5,43.333 M185.5,29.333c-12.131,0-22,9.869-22,22s9.869,22,22,22s22-9.869,22-22S197.63,29.333,185.5,29.333"
		/>
	<path clip-path="url(#SVGID_2_)" fill="#FFFFFF" d="M98.333,152.333c4.418,0,8,3.582,8,8s-3.582,8-8,8s-8-3.582-8-8
		S93.915,152.333,98.333,152.333 M98.333,138.333c-12.131,0-22,9.869-22,22s9.869,22,22,22s22-9.869,22-22
		S110.464,138.333,98.333,138.333"/>
</g>
</svg>
