<?xml version="1.0" encoding="utf-8"?>
<!-- Generator: Adobe Illustrator 16.0.0, SVG Export Plug-In . SVG Version: 6.00 Build 0)  -->
<!DOCTYPE svg PUBLIC "-//W3C//DTD SVG 1.1//EN" "http://www.w3.org/Graphics/SVG/1.1/DTD/svg11.dtd">
<svg version="1.1" id="Слой_1" xmlns="http://www.w3.org/2000/svg" xmlns:xlink="http://www.w3.org/1999/xlink" x="0px" y="0px"
	 width="88.027px" height="83.502px" viewBox="0 0 88.027 83.502" enable-background="new 0 0 88.027 83.502" xml:space="preserve">
<g>
	<defs>
		<rect id="SVGID_1_" width="88.028" height="83.502"/>
	</defs>
	<clipPath id="SVGID_2_">
		<use xlink:href="#SVGID_1_"  overflow="visible"/>
	</clipPath>
	<path clip-path="url(#SVGID_2_)" fill="#2B3137" d="M88.027,29.204c-1.93,0.116-3.657,0.22-5.366,0.323
		c1.944-1.385,3.574-3.029,4.089-5.667c-1.809,0.319-3.439,0.607-4.962,0.876c2.387-2.415,3.953-5.112,1.668-8.541
		c-0.914,1.116-1.772,2.163-2.629,3.211c1.574-3.379,1.546-6.455-1.776-9.086c-0.88,2.075-6.114,13.938-15.656,19.306
		c-1.524,0.857-2.755,2.089-3.057,3.717c-0.165,0.892,2.142,4.151,2.203,4.456c0.157,0.792-0.364,1.292-0.995,1.852
		c-3.9,3.46-7.761-5.878-8.378-7.239c-0.385-0.852-0.526-1.873-0.442-2.794c0.177-1.941,1.154-3.582,2.963-4.918
		c0.57,0.864,1.26,0.626,2.016,0.382c1.095-0.353,4.336-0.251,4.204-0.416c1.247,0.205,3.783-0.787,2.714-1.103
		c-1.023-0.303-2.057-0.58-3.086-0.869c1.104-0.713,2.367-0.886,3.718-0.522c0.693-1.83-0.203-3.348-2.174-3.85
		c-0.482-0.123-0.911-0.412-1.488-0.682l-1.427-1.073c0-0.134-0.026-0.277,0.004-0.409c0.239-1.058,0.511-2.11,0.72-3.172
		c0.051-0.259,0.018-0.635-0.162-0.807c-0.71-0.684-1.558-1.141-2.679-0.864c0.001-0.003-0.694,0.897-1.438,0.878
		c-0.742-0.019-1.533-0.958-1.726-0.921c-1.526,0.292-2.68,1.306-2.001,2.94c0.32,0.772,0.511,1.586,0.761,2.386
		c-2.099,0.424-5.025-0.831-5.873-2.743c0.867-0.299,0.861-0.3,0.984-1.145c0.028-0.196,0.112-0.386,0.181-0.576
		c0.451-1.242,0.925-2.478,1.352-3.726c0.496-1.453,0.207-2.718-0.987-3.37c-1.262-0.689-4.446-0.356-4.64-0.37
		c-0.051-0.895-0.098-1.741-0.146-2.602c0.242,0.032,0.511,0.068,0.833,0.111V0.714c-0.328,0.038-0.616,0.072-0.925,0.107
		c0.078-0.32,0.139-0.571,0.2-0.821h-0.579h-0.062h-0.579c0.061,0.25,0.122,0.501,0.2,0.821c-0.309-0.035-0.597-0.069-0.925-0.107
		v1.463c0.322-0.043,0.591-0.079,0.833-0.111c-0.048,0.861-0.095,1.707-0.145,2.602c-0.194,0.014-3.378-0.319-4.64,0.37
		c-1.194,0.652-1.483,1.917-0.987,3.37c0.426,1.248,0.9,2.484,1.351,3.726c0.069,0.19,0.153,0.38,0.181,0.576
		c0.123,0.845,0.117,0.846,0.984,1.145c-0.847,1.912-3.774,3.167-5.873,2.743c0.251-0.8,0.441-1.614,0.761-2.386
		c0.679-1.634-0.475-2.648-2.001-2.94c-0.192-0.037-0.983,0.902-1.726,0.921c-0.743,0.019-1.438-0.881-1.437-0.878
		c-1.121-0.277-1.969,0.18-2.679,0.864c-0.179,0.172-0.213,0.548-0.162,0.807c0.21,1.062,0.481,2.114,0.72,3.172
		c0.03,0.132,0.004,0.275,0.004,0.409l-1.427,1.073c-0.577,0.27-1.006,0.559-1.488,0.682c-1.971,0.502-2.867,2.02-2.174,3.85
		c1.351-0.364,2.614-0.191,3.718,0.522c-1.03,0.289-2.063,0.566-3.086,0.869c-1.07,0.316,1.467,1.308,2.714,1.103
		c-0.132,0.165,3.109,0.063,4.204,0.416c0.756,0.244,1.445,0.482,2.015-0.382c1.809,1.336,2.786,2.977,2.963,4.918
		c0.084,0.921-0.057,1.942-0.442,2.794c-0.617,1.361-4.478,10.699-8.378,7.239c-0.631-0.56-1.152-1.06-0.995-1.852
		c0.061-0.305,2.368-3.564,2.203-4.456c-0.302-1.628-1.532-2.86-3.057-3.717C15.091,24.258,9.857,12.395,8.977,10.32
		c-3.322,2.631-3.351,5.707-1.776,9.086c-0.857-1.048-1.715-2.095-2.629-3.211c-2.285,3.429-0.719,6.126,1.668,8.541
		c-1.523-0.269-3.154-0.557-4.962-0.876c0.514,2.638,2.144,4.282,4.089,5.667C3.658,29.424,1.93,29.32,0,29.204
		c0.874,2.756,3.157,3.888,5.786,5c-1.952,0.107-3.685,0.151-5.147,1.096c0.838,1.518,2.242,2.312,5.327,3.026
		c-1.306,0.685-2.62,1.373-3.934,2.061c0.015,0.166,0.018,0.192,0.032,0.357c1.433,0.5,2.867,0.999,4.13,1.439
		c-0.563,0.668-1.233,1.463-1.905,2.26c1.334,1.067,2.69,1.248,4.06,1.134c-0.852,1.016-1.688,2.012-2.571,3.063
		c1.844,1.186,3.324,0.375,4.944-0.093c-1.552,0.97-0.79,2.252-0.709,3.497c1.201,0.265,2.414,0.668,3.675-0.22
		c0.34,0.82,0.65,1.566,0.939,2.262c1.054-0.27,2.161-0.552,3.272-0.836c0.618,0.826,1.256,1.679,1.79,2.393
		c0.988-0.546,10.118-6.496,10.64-6.897c1.132,1.807-2.531,6.981-2.41,7.213c-0.593,0.335-1.213,0.614-1.736,0.998
		c-1.084,0.794-1.722,1.811-1.698,3.1c0.011,0.641,0.018,1.281,0.014,1.921c-0.008,1.317-0.3,1.616-1.745,1.826
		c-0.239,0.036-0.303,0.315-0.099,0.431l2.247,1.275l3.586,0.372c1.193,0.124,5.435,0.067,5.435,0.067
		c0-0.001,1.909-0.721,1.715-1.874c-0.639-0.045-1.504,0.449-1.753-0.545c-0.189-0.754,0.391-1.612,1.234-1.865
		c0.184-0.056,0.381-0.093,0.574-0.107c1.175-0.085,2.965,0.646,2.965,1.665c0,4.558-9.991,15.361-8.884,14.503
		c1.223,1.942,3.057,2.176,5.195,1.394c1.216,2.268,3.565,2.893,6.531,1.749c0.741,0.782,1.492,1.575,2.243,2.369v0.261
		c0.087,0.001,0.157,0.002,0.24,0.004v0.001c0.003,0,0.005,0,0.009-0.001c0.001,0,0.001,0.001,0.002,0.001s0.001,0,0.001,0
		c0.007,0,0.013,0,0.019,0s0.011,0,0.02,0c0,0,0,0,0.001,0s0.001-0.001,0.003-0.001c0.003,0.001,0.005,0.001,0.008,0.001v-0.001
		c0.083-0.002,0.153-0.003,0.24-0.004v-0.261c0.751-0.794,1.502-1.587,2.242-2.369c2.967,1.144,5.315,0.519,6.531-1.749
		c2.139,0.782,3.973,0.549,5.195-1.394c1.106,0.858-8.884-9.945-8.884-14.503c0-1.02,1.79-1.75,2.965-1.665
		c0.192,0.015,0.39,0.052,0.574,0.107c0.843,0.253,1.423,1.111,1.233,1.865c-0.249,0.994-1.114,0.5-1.753,0.545
		c-0.194,1.153,1.715,1.873,1.715,1.874c0,0,4.242,0.057,5.436-0.067l3.586-0.372l2.247-1.275c0.204-0.115,0.14-0.395-0.1-0.431
		c-1.444-0.21-1.736-0.509-1.745-1.826c-0.004-0.64,0.004-1.28,0.015-1.921c0.023-1.289-0.614-2.306-1.698-3.1
		c-0.522-0.384-1.143-0.663-1.736-0.998c0.121-0.231-3.542-5.406-2.409-7.213c0.521,0.401,9.651,6.352,10.64,6.897
		c0.534-0.714,1.172-1.566,1.79-2.393c1.111,0.284,2.218,0.566,3.271,0.836c0.289-0.695,0.6-1.441,0.939-2.262
		c1.261,0.888,2.474,0.484,3.675,0.22c0.081-1.245,0.843-2.527-0.709-3.497c1.62,0.468,3.101,1.278,4.944,0.093
		c-0.883-1.052-1.719-2.048-2.571-3.063c1.37,0.114,2.727-0.066,4.061-1.134c-0.673-0.797-1.343-1.591-1.905-2.26
		c1.264-0.44,2.697-0.939,4.13-1.439c0.014-0.165,0.017-0.191,0.032-0.357c-1.314-0.688-2.628-1.376-3.935-2.061
		c3.085-0.714,4.489-1.508,5.327-3.026c-1.462-0.945-3.195-0.989-5.146-1.096C84.871,33.092,87.153,31.96,88.027,29.204
		 M44.014,29.935c-0.704-2.853-5.81-9.776-6.283-10.132c0.646-0.618,3.961-4.464,5.065-5.308c0.205-0.157,0.694-0.232,1.218-0.243
		c0.524,0.011,1.013,0.086,1.218,0.243c1.105,0.844,4.419,4.69,5.065,5.308C49.824,20.159,44.718,27.082,44.014,29.935"/>
</g>
</svg>
