<?xml version="1.0" encoding="utf-8"?>
<!-- Generator: Adobe Illustrator 16.0.0, SVG Export Plug-In . SVG Version: 6.00 Build 0)  -->
<!DOCTYPE svg PUBLIC "-//W3C//DTD SVG 1.1//EN" "http://www.w3.org/Graphics/SVG/1.1/DTD/svg11.dtd">
<svg version="1.1" id="Слой_1" xmlns="http://www.w3.org/2000/svg" xmlns:xlink="http://www.w3.org/1999/xlink" x="0px" y="0px"
	 width="67.319px" height="89.043px" viewBox="0 0 67.319 89.043" enable-background="new 0 0 67.319 89.043" xml:space="preserve">
<g>
	<defs>
		<rect id="SVGID_1_" y="0" width="67.319" height="89.043"/>
	</defs>
	<clipPath id="SVGID_2_">
		<use xlink:href="#SVGID_1_"  overflow="visible"/>
	</clipPath>
	
		<path clip-path="url(#SVGID_2_)" fill="none" stroke="#2B3137" stroke-width="3" stroke-linecap="round" stroke-linejoin="round" stroke-miterlimit="10" d="
		M18.097,32.483c-3.318-3.228-5.289-7.273-5.282-11.663c0.008-4.386,1.989-8.424,5.313-11.645"/>
	
		<path clip-path="url(#SVGID_2_)" fill="none" stroke="#2B3137" stroke-width="3" stroke-linecap="round" stroke-linejoin="round" stroke-miterlimit="10" d="
		M10.256,40.139C4.755,34.788,1.488,28.081,1.5,20.804C1.513,13.533,4.797,6.838,10.307,1.5"/>
	
		<path clip-path="url(#SVGID_2_)" fill="none" stroke="#2B3137" stroke-width="3" stroke-linecap="round" stroke-linejoin="round" stroke-miterlimit="10" d="
		M26,25.099c-1.213-1.18-1.933-2.658-1.93-4.263c0.002-1.603,0.726-3.079,1.941-4.256"/>
	
		<path clip-path="url(#SVGID_2_)" fill="none" stroke="#2B3137" stroke-width="3" stroke-linecap="round" stroke-linejoin="round" stroke-miterlimit="10" d="
		M49.222,9.163c3.318,3.228,5.289,7.273,5.282,11.663c-0.008,4.386-1.989,8.424-5.313,11.645"/>
	
		<path clip-path="url(#SVGID_2_)" fill="none" stroke="#2B3137" stroke-width="3" stroke-linecap="round" stroke-linejoin="round" stroke-miterlimit="10" d="
		M57.063,1.507c5.501,5.351,8.768,12.058,8.756,19.335c-0.013,7.271-3.297,13.966-8.807,19.304"/>
	
		<path clip-path="url(#SVGID_2_)" fill="none" stroke="#2B3137" stroke-width="3" stroke-linecap="round" stroke-linejoin="round" stroke-miterlimit="10" d="
		M41.319,16.547c1.213,1.18,1.934,2.658,1.931,4.263c-0.002,1.603-0.727,3.079-1.941,4.256"/>
	
		<circle clip-path="url(#SVGID_2_)" fill="none" stroke="#2B3137" stroke-width="3" stroke-linecap="round" stroke-linejoin="round" stroke-miterlimit="10" cx="33.654" cy="21.342" r="2.575"/>
	
		<polyline clip-path="url(#SVGID_2_)" fill="none" stroke="#2B3137" stroke-width="3" stroke-linecap="round" stroke-linejoin="round" stroke-miterlimit="10" points="
		28.911,53.214 39.854,62.83 25.761,74.6 43.725,87.543 33.719,19.81 23.713,87.543 	"/>
</g>
</svg>
