<?xml version="1.0" encoding="utf-8"?>
<!-- Generator: Adobe Illustrator 16.0.0, SVG Export Plug-In . SVG Version: 6.00 Build 0)  -->
<!DOCTYPE svg PUBLIC "-//W3C//DTD SVG 1.1//EN" "http://www.w3.org/Graphics/SVG/1.1/DTD/svg11.dtd">
<svg version="1.1" id="Слой_1" xmlns="http://www.w3.org/2000/svg" xmlns:xlink="http://www.w3.org/1999/xlink" x="0px" y="0px"
	 width="43.302px" height="57.252px" viewBox="0 0 43.302 57.252" enable-background="new 0 0 43.302 57.252" xml:space="preserve">
<g>
	<defs>
		<rect id="SVGID_1_" width="43.302" height="57.252"/>
	</defs>
	<clipPath id="SVGID_2_">
		<use xlink:href="#SVGID_1_"  overflow="visible"/>
	</clipPath>
	
		<path clip-path="url(#SVGID_2_)" fill="none" stroke="#2B3137" stroke-width="2" stroke-linecap="round" stroke-linejoin="round" stroke-miterlimit="10" d="
		M11.658,20.896c-2.131-2.073-3.396-4.671-3.391-7.489c0.004-2.817,1.276-5.41,3.411-7.478"/>
	
		<path clip-path="url(#SVGID_2_)" fill="none" stroke="#2B3137" stroke-width="2" stroke-linecap="round" stroke-linejoin="round" stroke-miterlimit="10" d="
		M6.623,25.812C3.089,22.376,0.992,18.069,1,13.396C1.008,8.727,3.116,4.428,6.655,1.001"/>
	
		<path clip-path="url(#SVGID_2_)" fill="none" stroke="#2B3137" stroke-width="2" stroke-linecap="round" stroke-linejoin="round" stroke-miterlimit="10" d="
		M16.732,16.154c-0.779-0.758-1.241-1.707-1.24-2.737c0.002-1.03,0.467-1.978,1.247-2.733"/>
	
		<path clip-path="url(#SVGID_2_)" fill="none" stroke="#2B3137" stroke-width="2" stroke-linecap="round" stroke-linejoin="round" stroke-miterlimit="10" d="
		M31.645,5.92c2.131,2.073,3.396,4.671,3.391,7.489c-0.004,2.817-1.276,5.41-3.411,7.478"/>
	
		<path clip-path="url(#SVGID_2_)" fill="none" stroke="#2B3137" stroke-width="2" stroke-linecap="round" stroke-linejoin="round" stroke-miterlimit="10" d="
		M36.68,1.004c3.532,3.436,5.63,7.743,5.622,12.416c-0.009,4.669-2.116,8.968-5.655,12.395"/>
	
		<path clip-path="url(#SVGID_2_)" fill="none" stroke="#2B3137" stroke-width="2" stroke-linecap="round" stroke-linejoin="round" stroke-miterlimit="10" d="
		M26.569,10.663c0.779,0.758,1.241,1.707,1.24,2.737c-0.002,1.03-0.467,1.978-1.247,2.733"/>
	
		<circle clip-path="url(#SVGID_2_)" fill="none" stroke="#2B3137" stroke-width="2" stroke-linecap="round" stroke-linejoin="round" stroke-miterlimit="10" cx="21.647" cy="13.741" r="1.653"/>
	
		<polyline clip-path="url(#SVGID_2_)" fill="none" stroke="#2B3137" stroke-width="2" stroke-linecap="round" stroke-linejoin="round" stroke-miterlimit="10" points="
		18.602,34.208 25.628,40.382 16.579,47.941 28.114,56.252 21.689,12.758 15.264,56.252 	"/>
</g>
</svg>
