<?xml version="1.0" encoding="utf-8"?>
<!-- Generator: Adobe Illustrator 16.0.0, SVG Export Plug-In . SVG Version: 6.00 Build 0)  -->
<!DOCTYPE svg PUBLIC "-//W3C//DTD SVG 1.1//EN" "http://www.w3.org/Graphics/SVG/1.1/DTD/svg11.dtd">
<svg version="1.1" id="Слой_1" xmlns="http://www.w3.org/2000/svg" xmlns:xlink="http://www.w3.org/1999/xlink" x="0px" y="0px"
	 width="54.871px" height="49.46px" viewBox="0 0 54.871 49.46" enable-background="new 0 0 54.871 49.46" xml:space="preserve">
<g>
	<defs>
		<rect id="SVGID_1_" y="0" width="54.871" height="49.46"/>
	</defs>
	<clipPath id="SVGID_2_">
		<use xlink:href="#SVGID_1_"  overflow="visible"/>
	</clipPath>
	
		<path clip-path="url(#SVGID_2_)" fill="none" stroke="#2B3137" stroke-width="2" stroke-linecap="round" stroke-linejoin="round" stroke-miterlimit="10" d="
		M47.085,48.46L47.085,48.46c-12.437-5.416-26.558-5.459-39.025-0.117L7.785,48.46C4.053,48.46,1,45.407,1,41.674V25.837
		c0-3.732,3.053-6.785,6.785-6.785h39.3c3.732,0,6.786,3.053,6.786,6.785v15.837C53.871,45.407,50.817,48.46,47.085,48.46z"/>
	<path clip-path="url(#SVGID_2_)" fill="#2B3137" d="M14.94,38.561L14.94,38.561c-1.028,0-1.861-0.833-1.861-1.861V25.531
		c0-1.028,0.833-1.861,1.861-1.861s1.861,0.833,1.861,1.861V36.7C16.801,37.728,15.968,38.561,14.94,38.561"/>
	<path clip-path="url(#SVGID_2_)" fill="#2B3137" d="M22.385,31.116L22.385,31.116c0,1.027-0.833,1.86-1.861,1.86H9.355
		c-1.028,0-1.861-0.833-1.861-1.86c0-1.028,0.833-1.861,1.861-1.861h11.169C21.552,29.254,22.385,30.087,22.385,31.116"/>
	<path clip-path="url(#SVGID_2_)" fill="#2B3137" d="M46.848,28.112c0,1.022-0.829,1.852-1.851,1.852
		c-1.022,0-1.851-0.829-1.851-1.852c0-1.021,0.828-1.851,1.851-1.851C46.019,26.261,46.848,27.09,46.848,28.112"/>
	<path clip-path="url(#SVGID_2_)" fill="#2B3137" d="M46.848,33.771c0,1.021-0.829,1.851-1.851,1.851
		c-1.022,0-1.851-0.829-1.851-1.851c0-1.022,0.828-1.852,1.851-1.852C46.019,31.919,46.848,32.749,46.848,33.771"/>
	<path clip-path="url(#SVGID_2_)" fill="#2B3137" d="M41.189,33.771c0,1.021-0.829,1.851-1.852,1.851
		c-1.021,0-1.85-0.829-1.85-1.851c0-1.022,0.828-1.852,1.85-1.852C40.36,31.919,41.189,32.749,41.189,33.771"/>
	<path clip-path="url(#SVGID_2_)" fill="#2B3137" d="M41.189,28.112c0,1.022-0.829,1.852-1.852,1.852
		c-1.021,0-1.85-0.829-1.85-1.852c0-1.021,0.828-1.851,1.85-1.851C40.36,26.261,41.189,27.09,41.189,28.112"/>
	
		<path clip-path="url(#SVGID_2_)" fill="none" stroke="#2B3137" stroke-width="2" stroke-linecap="round" stroke-linejoin="round" stroke-miterlimit="10" d="
		M27.482,1l1.229,1.152c2.248,2.107,1.909,5.766-0.686,7.427c-1.892,1.21-2.67,3.586-1.861,5.681l1.318,3.415"/>
</g>
</svg>
