<?xml version="1.0" encoding="utf-8"?>
<!-- Generator: Adobe Illustrator 16.0.0, SVG Export Plug-In . SVG Version: 6.00 Build 0)  -->
<!DOCTYPE svg PUBLIC "-//W3C//DTD SVG 1.1//EN" "http://www.w3.org/Graphics/SVG/1.1/DTD/svg11.dtd">
<svg version="1.1" id="Слой_1" xmlns="http://www.w3.org/2000/svg" xmlns:xlink="http://www.w3.org/1999/xlink" x="0px" y="0px"
	 width="90.164px" height="69.196px" viewBox="0 0 90.164 69.196" enable-background="new 0 0 90.164 69.196" xml:space="preserve">
<g>
	<defs>
		<rect id="SVGID_1_" width="90.164" height="69.196"/>
	</defs>
	<clipPath id="SVGID_2_">
		<use xlink:href="#SVGID_1_"  overflow="visible"/>
	</clipPath>
	
		<path clip-path="url(#SVGID_2_)" fill="none" stroke="#2B3137" stroke-width="3" stroke-linecap="round" stroke-linejoin="round" stroke-miterlimit="10" d="
		M27.173,33.889l16.618-16.618c1.834-1.834,2.138-3.966-0.239-6.343c-2.377-2.377-4.51-2.073-6.343-0.239l-24.62,24.619"/>
	
		<path clip-path="url(#SVGID_2_)" fill="none" stroke="#2B3137" stroke-width="3" stroke-linecap="round" stroke-linejoin="round" stroke-miterlimit="10" d="
		M36.474,48.524l5.975-5.975c2.526-2.526,3.555-4.74,1.528-7.192c-1.715-2.075-3.407-2.256-3.407-2.256"/>
	
		<path clip-path="url(#SVGID_2_)" fill="none" stroke="#2B3137" stroke-width="3" stroke-linecap="round" stroke-linejoin="round" stroke-miterlimit="10" d="
		M43.439,41.559c3.865,2.755,3.094,5.613,0.376,8.697c-2.718,3.085-4.228,4.729-7.888,8.389c-8.83,8.83-18.747,9.051-18.747,9.051"
		/>
	
		<path clip-path="url(#SVGID_2_)" fill="none" stroke="#2B3137" stroke-width="3" stroke-linecap="round" stroke-linejoin="round" stroke-miterlimit="10" d="
		M22.607,24.73c-0.244-0.457-1.154-1.562-1.883-2.292c-1.65-1.65-4.195-1.586-6.78,0.497c0,0-2.75,2.094-5.976,5.216
		c-4.189,4.054-5.287,6.621-6.016,10.628c-0.999,5.502-0.031,13.877-0.031,13.877"/>
	
		<path clip-path="url(#SVGID_2_)" fill="none" stroke="#2B3137" stroke-width="3" stroke-linecap="round" stroke-linejoin="round" stroke-miterlimit="10" d="
		M33.138,41.089l5.539-5.54c2.526-2.526,4.112-5.48,1.509-8.083c-2.21-2.21-3.862-2.711-3.862-2.711"/>
	
		<path clip-path="url(#SVGID_2_)" fill="none" stroke="#2B3137" stroke-width="3" stroke-linecap="round" stroke-linejoin="round" stroke-miterlimit="10" d="
		M27.589,18.402V9.681c0-4.518,3.663-8.181,8.182-8.181h44.711c4.518,0,8.181,3.663,8.181,8.181v8.721
		c0,4.519-3.663,8.182-8.181,8.182H35.771"/>
</g>
</svg>
