<?xml version="1.0" encoding="utf-8"?>
<!-- Generator: Adobe Illustrator 16.0.0, SVG Export Plug-In . SVG Version: 6.00 Build 0)  -->
<!DOCTYPE svg PUBLIC "-//W3C//DTD SVG 1.1//EN" "http://www.w3.org/Graphics/SVG/1.1/DTD/svg11.dtd">
<svg version="1.1" id="Слой_1" xmlns="http://www.w3.org/2000/svg" xmlns:xlink="http://www.w3.org/1999/xlink" x="0px" y="0px"
	 width="54.245px" height="48.682px" viewBox="0 0 54.245 48.682" enable-background="new 0 0 54.245 48.682" xml:space="preserve">
<g>
	<defs>
		<rect id="SVGID_1_" width="54.245" height="48.682"/>
	</defs>
	<clipPath id="SVGID_2_">
		<use xlink:href="#SVGID_1_"  overflow="visible"/>
	</clipPath>
	
		<path clip-path="url(#SVGID_2_)" fill="none" stroke="#2B3137" stroke-width="2" stroke-linecap="round" stroke-linejoin="round" stroke-miterlimit="10" d="
		M26.034,26.446L52.481,11.49c1.108-0.626,0.984-2.261-0.207-2.713L32.536,1.293c-1.197-0.454-2.53-0.377-3.665,0.213L1.811,15.549
		c-1.132,0.588-1.064,2.23,0.113,2.721l20.166,8.413C23.37,27.215,24.826,27.128,26.034,26.446z"/>
	
		<path clip-path="url(#SVGID_2_)" fill="none" stroke="#2B3137" stroke-width="2" stroke-linecap="round" stroke-linejoin="round" stroke-miterlimit="10" d="
		M14.734,23.698L1.81,30.405c-1.132,0.589-1.063,2.23,0.114,2.722l20.165,8.412c1.281,0.533,2.737,0.446,3.945-0.236l26.448-14.956
		c1.107-0.627,0.982-2.261-0.207-2.713l-12.839-4.868"/>
	
		<path clip-path="url(#SVGID_2_)" fill="none" stroke="#2B3137" stroke-width="2" stroke-linecap="round" stroke-linejoin="round" d="
		M7.457,12.358c0-5.231,4.241-9.472,9.472-9.472c4.122,0,7.63,2.634,8.931,6.311c0.181,0.512,0.32,1.045,0.411,1.594"/>
	<path clip-path="url(#SVGID_2_)" fill="#2B3137" d="M24.607,10.855c0.08,0.91,0.883,1.583,1.793,1.503s1.583-0.883,1.503-1.793
		c-0.08-0.91-0.883-1.583-1.793-1.503S24.527,9.945,24.607,10.855"/>
	
		<path clip-path="url(#SVGID_2_)" fill="none" stroke="#2B3137" stroke-width="2" stroke-linecap="round" stroke-linejoin="round" d="
		M29.922,39.304c-0.542,4.717-4.548,8.378-9.41,8.378c-3.112,0-5.874-1.501-7.6-3.817"/>
	<path clip-path="url(#SVGID_2_)" fill="#2B3137" d="M14.367,43.023c-0.495-0.768-1.519-0.988-2.287-0.494s-0.989,1.519-0.494,2.286
		c0.495,0.769,1.519,0.989,2.286,0.495C14.64,44.815,14.862,43.792,14.367,43.023"/>
</g>
</svg>
