<?xml version="1.0" encoding="utf-8"?>
<!-- Generator: Adobe Illustrator 16.0.0, SVG Export Plug-In . SVG Version: 6.00 Build 0)  -->
<!DOCTYPE svg PUBLIC "-//W3C//DTD SVG 1.1//EN" "http://www.w3.org/Graphics/SVG/1.1/DTD/svg11.dtd">
<svg version="1.1" id="Слой_1" xmlns="http://www.w3.org/2000/svg" xmlns:xlink="http://www.w3.org/1999/xlink" x="0px" y="0px"
	 width="90.236px" height="68.329px" viewBox="0 0 90.236 68.329" enable-background="new 0 0 90.236 68.329" xml:space="preserve">
<g>
	<defs>
		<rect id="SVGID_1_" width="90.236" height="68.329"/>
	</defs>
	<clipPath id="SVGID_2_">
		<use xlink:href="#SVGID_1_"  overflow="visible"/>
	</clipPath>
	<path clip-path="url(#SVGID_2_)" fill="#2B3137" d="M90.125,8.919C89.424,3.882,85.11,0,79.879,0H10.357
		C5.083,0,0.74,3.944,0.092,9.041c0.182-0.078,0.382-0.122,0.592-0.122H90.125z"/>
	<path clip-path="url(#SVGID_2_)" fill="#2B3137" d="M90.236,11.919H0.684c-0.248,0-0.478-0.066-0.684-0.172v46.225
		c0,5.721,4.637,10.357,10.356,10.357h69.522c5.721,0,10.357-4.637,10.357-10.357V11.919 M29.339,49.491
		c0.781,0.781,0.781,2.047,0,2.828c-0.39,0.391-0.902,0.586-1.414,0.586s-1.024-0.195-1.414-0.586L12.079,37.888l14.673-14.671
		c0.78-0.781,2.048-0.781,2.828,0c0.781,0.781,0.781,2.047,0,2.828L17.737,37.888L29.339,49.491z M56.772,21.668L37.808,56.376
		c-0.363,0.665-1.049,1.041-1.757,1.041c-0.324,0-0.652-0.079-0.957-0.246c-0.969-0.528-1.326-1.744-0.796-2.713L53.263,19.75
		c0.529-0.969,1.742-1.326,2.714-0.796C56.945,19.483,57.303,20.698,56.772,21.668 M64.782,52.233
		c-0.388,0.376-0.89,0.563-1.391,0.563c-0.523,0-1.045-0.203-1.438-0.607c-0.768-0.794-0.748-2.061,0.046-2.829l12.032-11.651
		L62.617,25.92c-0.768-0.793-0.747-2.06,0.046-2.828c0.794-0.767,2.06-0.748,2.828,0.046l14.197,14.661L64.782,52.233z"/>
</g>
</svg>
