<?xml version="1.0" encoding="utf-8"?>
<!-- Generator: Adobe Illustrator 16.0.0, SVG Export Plug-In . SVG Version: 6.00 Build 0)  -->
<!DOCTYPE svg PUBLIC "-//W3C//DTD SVG 1.1//EN" "http://www.w3.org/Graphics/SVG/1.1/DTD/svg11.dtd">
<svg version="1.1" id="Слой_1" xmlns="http://www.w3.org/2000/svg" xmlns:xlink="http://www.w3.org/1999/xlink" x="0px" y="0px"
	 width="95.333px" height="101.867px" viewBox="0 0 95.333 101.867" enable-background="new 0 0 95.333 101.867"
	 xml:space="preserve">
<g>
	<defs>
		<rect id="SVGID_1_" width="95.333" height="101.867"/>
	</defs>
	<clipPath id="SVGID_2_">
		<use xlink:href="#SVGID_1_"  overflow="visible"/>
	</clipPath>
	<path clip-path="url(#SVGID_2_)" fill="none" stroke="#2B3137" stroke-width="3" stroke-miterlimit="10" d="M93.833,54.2
		c0,25.497-20.67,46.167-46.167,46.167C22.169,100.367,1.5,79.697,1.5,54.2C1.5,29.5,20.898,9.33,45.292,8.093"/>
	<polygon clip-path="url(#SVGID_2_)" fill="#2B3137" points="38.897,17.836 37.262,16.376 44.465,8.331 35.914,1.734 37.255,0 
		47.667,8.036 	"/>
	<path clip-path="url(#SVGID_2_)" fill="#2B3137" d="M54.099,78.651c-0.826-0.825-1.282-1.925-1.282-3.095
		c0-0.635,0.135-1.249,0.389-1.812c-0.068-0.154-0.133-0.311-0.196-0.469c-1.653-0.625-2.833-2.225-2.833-4.095v-0.754
		c-0.841,0.147-1.7,0.239-2.583,0.239c-8.193,0-14.834-6.641-14.834-14.834C32.758,45.642,39.399,39,47.592,39
		c7.75,0,14.102,5.946,14.767,13.523c0.794-0.802,1.888-1.306,3.103-1.306h2.679c1.661,0,3.11,0.932,3.851,2.3
		c0.437,0.154,0.865,0.328,1.285,0.521c0.95-0.278,1.976-0.226,2.899,0.151v-2.594c0-1.066-0.863-1.929-1.929-1.929h-0.058
		c-0.877,0-1.658-0.588-1.863-1.44c-0.599-2.489-1.563-4.835-2.835-6.977c-0.443-0.746-0.303-1.701,0.31-2.315
		c0.755-0.753,0.755-1.975,0-2.728l-4.166-4.166c-0.753-0.754-1.974-0.754-2.728,0L62.9,32.048
		c-0.613,0.613-1.566,0.753-2.313,0.311c-2.141-1.268-4.484-2.227-6.971-2.824c-0.853-0.204-1.441-0.986-1.441-1.863v-0.076
		c0-1.066-0.863-1.929-1.929-1.929h-5.892c-1.066,0-1.929,0.863-1.929,1.929v0.259c0,0.857-0.562,1.625-1.389,1.849
		c-2.394,0.647-4.647,1.637-6.705,2.912c-0.751,0.465-1.726,0.337-2.351-0.288l-0.287-0.287c-0.753-0.754-1.975-0.754-2.728,0
		L24.8,36.208c-0.754,0.753-0.754,1.975,0,2.728l0.468,0.468c0.606,0.606,0.748,1.543,0.325,2.287
		c-1.147,2.02-2.024,4.213-2.584,6.53c-0.206,0.854-0.984,1.447-1.863,1.447h-0.791c-1.066,0-1.929,0.863-1.929,1.929v5.892
		c0,1.065,0.863,1.929,1.929,1.929h0.96c0.86,0,1.627,0.567,1.85,1.398c0.602,2.236,1.502,4.35,2.655,6.297
		c0.443,0.75,0.311,1.705-0.305,2.321L24.8,70.148c-0.754,0.753-0.754,1.975,0,2.728l4.166,4.166c0.753,0.755,1.975,0.755,2.728,0
		l0.708-0.708c0.617-0.615,1.574-0.749,2.324-0.303c1.948,1.156,4.064,2.06,6.303,2.664c0.83,0.224,1.397,0.99,1.397,1.85v0.943
		c0,1.065,0.863,1.929,1.929,1.929h5.892c1.065,0,1.929-0.863,1.929-1.929v-0.761c0-0.88,0.594-1.658,1.448-1.864
		c0.182-0.044,0.357-0.102,0.537-0.149L54.099,78.651z"/>
	<path clip-path="url(#SVGID_2_)" fill="#2B3137" d="M79.049,65.627h-0.025c-0.399,0-0.754-0.268-0.848-0.655
		c-0.272-1.131-0.71-2.197-1.289-3.171c-0.2-0.339-0.138-0.773,0.142-1.052c0.343-0.344,0.343-0.898,0-1.24l-1.894-1.895
		c-0.343-0.342-0.897-0.342-1.239,0l-0.005,0.004c-0.277,0.278-0.712,0.343-1.051,0.142c-0.973-0.577-2.038-1.013-3.168-1.284
		c-0.388-0.093-0.654-0.448-0.654-0.847v-0.034c0-0.485-0.394-0.877-0.878-0.877h-2.678c-0.484,0-0.877,0.392-0.877,0.877v0.117
		c0,0.39-0.255,0.739-0.631,0.841c-1.089,0.294-2.113,0.744-3.048,1.323c-0.342,0.212-0.785,0.153-1.069-0.131l-0.13-0.131
		c-0.343-0.342-0.897-0.342-1.24,0l-1.894,1.895c-0.342,0.342-0.342,0.896,0,1.24l0.213,0.213c0.275,0.274,0.34,0.701,0.148,1.039
		c-0.522,0.918-0.921,1.915-1.176,2.968c-0.094,0.389-0.446,0.658-0.847,0.658h-0.359c-0.484,0-0.877,0.392-0.877,0.877v2.678
		c0,0.484,0.393,0.877,0.877,0.877h0.437c0.391,0,0.739,0.258,0.841,0.635c0.274,1.018,0.683,1.979,1.207,2.862
		c0.201,0.341,0.141,0.776-0.139,1.056l-0.325,0.325c-0.342,0.342-0.342,0.897,0,1.24l1.894,1.893c0.343,0.344,0.897,0.344,1.24,0
		l0.322-0.32c0.28-0.281,0.715-0.342,1.056-0.14c0.885,0.526,1.847,0.937,2.865,1.211c0.377,0.103,0.635,0.45,0.635,0.842v0.429
		c0,0.483,0.393,0.877,0.877,0.877h2.678c0.484,0,0.878-0.394,0.878-0.877v-0.346c0-0.4,0.269-0.755,0.657-0.848
		c1.058-0.254,2.058-0.653,2.979-1.177c0.339-0.193,0.765-0.128,1.04,0.148l0.202,0.2c0.342,0.344,0.896,0.344,1.239,0l1.894-1.893
		c0.343-0.343,0.343-0.898,0-1.24l-0.119-0.12c-0.284-0.284-0.343-0.727-0.131-1.067c0.582-0.939,1.033-1.967,1.327-3.06
		c0.101-0.376,0.45-0.631,0.84-0.631h0.104c0.484,0,0.877-0.393,0.877-0.877v-2.678C79.926,66.019,79.533,65.627,79.049,65.627
		 M66.933,70.956c-1.896,0-3.435-1.538-3.435-3.436c0-1.896,1.538-3.435,3.435-3.435c1.897,0,3.436,1.538,3.436,3.435
		C70.368,69.418,68.83,70.956,66.933,70.956"/>
</g>
</svg>
