<?xml version="1.0" encoding="utf-8"?>
<!-- Generator: Adobe Illustrator 16.0.0, SVG Export Plug-In . SVG Version: 6.00 Build 0)  -->
<!DOCTYPE svg PUBLIC "-//W3C//DTD SVG 1.1//EN" "http://www.w3.org/Graphics/SVG/1.1/DTD/svg11.dtd">
<svg version="1.1" id="Слой_1" xmlns="http://www.w3.org/2000/svg" xmlns:xlink="http://www.w3.org/1999/xlink" x="0px" y="0px"
	 width="84.314px" height="47px" viewBox="0 0 84.314 47" enable-background="new 0 0 84.314 47" xml:space="preserve">
<g>
	<defs>
		<rect id="SVGID_1_" width="84.314" height="47"/>
	</defs>
	<clipPath id="SVGID_2_">
		<use xlink:href="#SVGID_1_"  overflow="visible"/>
	</clipPath>
	<path clip-path="url(#SVGID_2_)" fill="#2B3137" d="M72.719,11.718c-4.043-0.063-7.626,1.912-9.794,4.963
		C61.015,19.371,57.95,21,54.651,21c-4.048,0-7.805-2.376-9.292-6.14C41.665,5.522,32.162-0.885,21.305,0.1
		C9.899,1.134,0.788,10.512,0.05,21.941C-0.833,35.626,10.005,47,23.5,47c9.711,0,18.042-5.891,21.622-14.294
		c1.558-3.656,5.234-5.956,9.209-5.956h0.874c3.08,0,6.058,1.354,7.907,3.818c2.146,2.862,5.563,4.716,9.419,4.716
		c6.661,0,12.031-5.528,11.774-12.246C84.07,16.872,78.889,11.814,72.719,11.718"/>
	<path clip-path="url(#SVGID_2_)" fill="#FFFFFF" d="M31.179,22.665c0,4.189-3.397,7.587-7.587,7.587s-7.587-3.397-7.587-7.587
		c0-4.19,3.397-7.587,7.587-7.587S31.179,18.475,31.179,22.665"/>
</g>
</svg>
