<?xml version="1.0" encoding="utf-8"?>
<!-- Generator: Adobe Illustrator 16.0.0, SVG Export Plug-In . SVG Version: 6.00 Build 0)  -->
<!DOCTYPE svg PUBLIC "-//W3C//DTD SVG 1.1//EN" "http://www.w3.org/Graphics/SVG/1.1/DTD/svg11.dtd">
<svg version="1.1" id="Слой_1" xmlns="http://www.w3.org/2000/svg" xmlns:xlink="http://www.w3.org/1999/xlink" x="0px" y="0px"
	 width="62.384px" height="109.854px" viewBox="0 0 62.384 109.854" enable-background="new 0 0 62.384 109.854"
	 xml:space="preserve">
<g>
	<defs>
		<rect id="SVGID_1_" width="62.384" height="109.854"/>
	</defs>
	<clipPath id="SVGID_2_">
		<use xlink:href="#SVGID_1_"  overflow="visible"/>
	</clipPath>
	
		<path clip-path="url(#SVGID_2_)" fill="none" stroke="#2B3137" stroke-width="3" stroke-linecap="round" stroke-linejoin="round" stroke-miterlimit="10" d="
		M50.527,108.354h-38.67c-5.72,0-10.357-4.637-10.357-10.357v-86.14C1.5,6.137,6.137,1.5,11.857,1.5h38.67
		c5.72,0,10.356,4.637,10.356,10.357v86.14C60.884,103.717,56.247,108.354,50.527,108.354z"/>
	
		<line clip-path="url(#SVGID_2_)" fill="none" stroke="#2B3137" stroke-width="3" stroke-linecap="round" stroke-linejoin="round" stroke-miterlimit="10" x1="1.5" y1="92.159" x2="60.209" y2="92.159"/>
	
		<line clip-path="url(#SVGID_2_)" fill="none" stroke="#2B3137" stroke-width="3" stroke-miterlimit="10" x1="18.759" y1="12.634" x2="44.065" y2="12.634"/>
	<path clip-path="url(#SVGID_2_)" fill="#2B3137" d="M51.151,46.544c0,10.901-8.837,19.738-19.738,19.738
		c-10.902,0-19.739-8.837-19.739-19.738s8.837-19.738,19.739-19.738C42.314,26.806,51.151,35.643,51.151,46.544"/>
	
		<polyline clip-path="url(#SVGID_2_)" fill="none" stroke="#FFFFFF" stroke-width="3" stroke-linecap="round" stroke-linejoin="round" stroke-miterlimit="10" points="
		22.683,46.461 28.756,52.535 40.397,40.895 	"/>
</g>
</svg>
