<?xml version="1.0" encoding="utf-8"?>
<!-- Generator: Adobe Illustrator 16.0.0, SVG Export Plug-In . SVG Version: 6.00 Build 0)  -->
<!DOCTYPE svg PUBLIC "-//W3C//DTD SVG 1.1//EN" "http://www.w3.org/Graphics/SVG/1.1/DTD/svg11.dtd">
<svg version="1.1" id="Слой_1" xmlns="http://www.w3.org/2000/svg" xmlns:xlink="http://www.w3.org/1999/xlink" x="0px" y="0px"
	 width="93.498px" height="88.432px" viewBox="0 0 93.498 88.432" enable-background="new 0 0 93.498 88.432" xml:space="preserve">
<g>
	<defs>
		<rect id="SVGID_1_" y="0" width="93.498" height="88.432"/>
	</defs>
	<clipPath id="SVGID_2_">
		<use xlink:href="#SVGID_1_"  overflow="visible"/>
	</clipPath>
	<path clip-path="url(#SVGID_2_)" fill="#2B3137" d="M81.498,36.425H12c-6.6,0-12,5.4-12,12v28.006c0,6.602,5.4,12,12,12
		l0.483-0.205c22.05-9.447,47.021-9.372,69.015,0.205c6.601,0,12-5.398,12-12V48.425C93.498,41.825,88.099,36.425,81.498,36.425
		 M37.818,58.384c0,1.473-1.194,2.666-2.667,2.666h-7.208v7.209c0,1.473-1.194,2.666-2.667,2.666h-1.25
		c-1.472,0-2.666-1.193-2.666-2.666V61.05h-7.209c-1.472,0-2.666-1.193-2.666-2.666v-1.25c0-1.473,1.194-2.667,2.666-2.667h7.209
		v-7.208c0-1.473,1.194-2.667,2.666-2.667h1.25c1.473,0,2.667,1.194,2.667,2.667v7.208h7.208c1.473,0,2.667,1.194,2.667,2.667
		V58.384z M67.799,65.727c-1.808,0-3.272-1.466-3.272-3.272c0-1.808,1.465-3.273,3.272-3.273s3.272,1.466,3.272,3.273
		C71.071,64.261,69.606,65.727,67.799,65.727 M67.799,55.72c-1.808,0-3.272-1.465-3.272-3.272c0-1.807,1.465-3.272,3.272-3.272
		s3.272,1.466,3.272,3.272C71.071,54.255,69.606,55.72,67.799,55.72 M77.806,65.727c-1.808,0-3.273-1.466-3.273-3.272
		c0-1.808,1.466-3.273,3.273-3.273c1.807,0,3.272,1.466,3.272,3.273C81.078,64.261,79.612,65.727,77.806,65.727 M77.806,55.72
		c-1.808,0-3.273-1.465-3.273-3.272c0-1.807,1.466-3.272,3.273-3.272c1.807,0,3.272,1.466,3.272,3.272
		C81.078,54.255,79.612,55.72,77.806,55.72"/>
	
		<path clip-path="url(#SVGID_2_)" fill="none" stroke="#2B3137" stroke-width="3" stroke-linecap="round" stroke-linejoin="round" stroke-miterlimit="10" d="
		M46.832,1.5l-0.031,4.545c-0.018,2.515,1.068,4.911,2.969,6.557c3.804,3.291,3.979,9.132,0.381,12.646L49.38,26
		c-1.676,1.636-2.611,3.886-2.59,6.228l0.042,4.531"/>
</g>
</svg>
