<?xml version="1.0" encoding="utf-8"?>
<!-- Generator: Adobe Illustrator 16.0.0, SVG Export Plug-In . SVG Version: 6.00 Build 0)  -->
<!DOCTYPE svg PUBLIC "-//W3C//DTD SVG 1.1//EN" "http://www.w3.org/Graphics/SVG/1.1/DTD/svg11.dtd">
<svg version="1.1" id="Слой_1" xmlns="http://www.w3.org/2000/svg" xmlns:xlink="http://www.w3.org/1999/xlink" x="0px" y="0px"
	 width="69.5px" height="104.062px" viewBox="0 0 69.5 104.062" enable-background="new 0 0 69.5 104.062" xml:space="preserve">
<g>
	<defs>
		<rect id="SVGID_1_" width="69.5" height="104.062"/>
	</defs>
	<clipPath id="SVGID_2_">
		<use xlink:href="#SVGID_1_"  overflow="visible"/>
	</clipPath>
	
		<path clip-path="url(#SVGID_2_)" fill="none" stroke="#2B3137" stroke-width="3" stroke-linecap="round" stroke-linejoin="round" stroke-miterlimit="10" d="
		M61.899,102.562H7.601c-3.37,0-6.101-2.731-6.101-6.1v-82.3c0-3.369,2.731-6.1,6.101-6.1h54.299c3.369,0,6.101,2.731,6.101,6.1
		v82.3C68,99.831,65.269,102.562,61.899,102.562z"/>
	
		<line clip-path="url(#SVGID_2_)" fill="none" stroke="#2B3137" stroke-width="3" stroke-linecap="round" stroke-linejoin="round" stroke-miterlimit="10" x1="2.084" y1="80.104" x2="67.417" y2="80.104"/>
	<path clip-path="url(#SVGID_2_)" fill="#2B3137" d="M39.681,17.104c0,2.577-2.089,4.667-4.667,4.667
		c-2.577,0-4.666-2.09-4.666-4.667c0-2.577,2.089-4.667,4.666-4.667C37.592,12.437,39.681,14.527,39.681,17.104"/>
	
		<line clip-path="url(#SVGID_2_)" fill="none" stroke="#2B3137" stroke-width="3" stroke-linecap="round" stroke-linejoin="round" stroke-miterlimit="10" x1="40.768" y1="7.399" x2="42.158" y2="1.5"/>
	
		<polyline clip-path="url(#SVGID_2_)" fill="none" stroke="#2B3137" stroke-width="3" stroke-linecap="round" stroke-linejoin="round" stroke-miterlimit="10" points="
		29.038,1.937 33.46,15.004 33.881,15.573 35.015,17.104 	"/>
	<path clip-path="url(#SVGID_2_)" fill="#2B3137" d="M57.531,79.513l-2.627-6.814c0-2.431-13.438-6.726-14.475-8.805l-0.469-0.938
		c2.953-2.403,5.311-7.011,6.499-11.969c0.241,0.224,1.912-1.547,1.912-3.889c0-2.328-0.026-4.214-1.108-4.236
		c-0.461-8.449-5.507-12.086-11.676-12.086c-6.212,0-11.283,3.691-11.682,12.268c-0.056-0.01-0.109-0.036-0.166-0.036
		c-1.091,0-1.128,1.899-1.128,4.24c0,2.342,1.804,4.027,2.09,3.682c1.147,4.819,3.4,9.301,6.23,11.774l-0.623,1.264
		c-1.034,2.096-14.154,6.301-14.154,8.732l-2.626,6.813h41.375"/>
	
		<line clip-path="url(#SVGID_2_)" fill="none" stroke="#2B3137" stroke-width="3" stroke-linecap="round" stroke-linejoin="round" stroke-miterlimit="10" x1="11.681" y1="90.895" x2="40.264" y2="90.895"/>
</g>
</svg>
