<?xml version="1.0" encoding="utf-8"?>
<!-- Generator: Adobe Illustrator 16.0.0, SVG Export Plug-In . SVG Version: 6.00 Build 0)  -->
<!DOCTYPE svg PUBLIC "-//W3C//DTD SVG 1.1//EN" "http://www.w3.org/Graphics/SVG/1.1/DTD/svg11.dtd">
<svg version="1.1" id="Слой_1" xmlns="http://www.w3.org/2000/svg" xmlns:xlink="http://www.w3.org/1999/xlink" x="0px" y="0px"
	 width="55.249px" height="44.271px" viewBox="0 0 55.249 44.271" enable-background="new 0 0 55.249 44.271" xml:space="preserve">
<g>
	<defs>
		<rect id="SVGID_1_" y="0" width="55.249" height="44.272"/>
	</defs>
	<clipPath id="SVGID_2_">
		<use xlink:href="#SVGID_1_"  overflow="visible"/>
	</clipPath>
	
		<path clip-path="url(#SVGID_2_)" fill="none" stroke="#2B3137" stroke-width="2" stroke-linecap="round" stroke-linejoin="round" stroke-miterlimit="10" d="
		M48.966,35.279H6.283C3.365,35.279,1,32.914,1,29.996V6.283C1,3.365,3.365,1,6.283,1h42.683c2.918,0,5.283,2.365,5.283,5.283
		v23.713C54.249,32.914,51.884,35.279,48.966,35.279z"/>
	
		<line clip-path="url(#SVGID_2_)" fill="none" stroke="#2B3137" stroke-width="2" stroke-linecap="round" stroke-linejoin="round" stroke-miterlimit="10" x1="46.757" y1="43.271" x2="8.492" y2="43.271"/>
	
		<line clip-path="url(#SVGID_2_)" fill="none" stroke="#2B3137" stroke-width="2" stroke-linecap="round" stroke-linejoin="round" stroke-miterlimit="10" x1="27.625" y1="35.624" x2="27.625" y2="42.6"/>
	<rect x="20.442" y="14.651" clip-path="url(#SVGID_2_)" fill="#2B3137" width="2.102" height="9.253"/>
	<rect x="26.721" y="14.651" clip-path="url(#SVGID_2_)" fill="#2B3137" width="2.102" height="9.253"/>
	<rect x="33" y="14.651" clip-path="url(#SVGID_2_)" fill="#2B3137" width="2.102" height="9.253"/>
	<path clip-path="url(#SVGID_2_)" fill="#2B3137" d="M37.033,13.15H18.548c-0.386,0-0.516-0.516-0.176-0.699l8.542-4.588
		c0.603-0.323,1.326-0.32,1.925,0.008l8.372,4.581C37.549,12.637,37.418,13.15,37.033,13.15"/>
	<rect x="18.898" y="25.922" clip-path="url(#SVGID_2_)" fill="#2B3137" width="17.675" height="2.017"/>
</g>
</svg>
