<?xml version="1.0" encoding="utf-8"?>
<!-- Generator: Adobe Illustrator 16.0.0, SVG Export Plug-In . SVG Version: 6.00 Build 0)  -->
<!DOCTYPE svg PUBLIC "-//W3C//DTD SVG 1.1//EN" "http://www.w3.org/Graphics/SVG/1.1/DTD/svg11.dtd">
<svg version="1.1" id="Слой_1" xmlns="http://www.w3.org/2000/svg" xmlns:xlink="http://www.w3.org/1999/xlink" x="0px" y="0px"
	 width="74.841px" height="74.451px" viewBox="0 0 74.841 74.451" enable-background="new 0 0 74.841 74.451" xml:space="preserve">
<g>
	<defs>
		<rect id="SVGID_1_" y="0" width="74.841" height="74.451"/>
	</defs>
	<clipPath id="SVGID_2_">
		<use xlink:href="#SVGID_1_"  overflow="visible"/>
	</clipPath>
	
		<path clip-path="url(#SVGID_2_)" fill="none" stroke="#ffffff" stroke-width="3" stroke-linecap="round" stroke-linejoin="round" stroke-miterlimit="10" d="
		M41.209,40.062v26.06c0,3.771-3.059,6.829-6.83,6.829H8.33c-3.772,0-6.829-3.058-6.829-6.829V8.329C1.5,4.557,4.558,1.5,8.33,1.5
		h26.05c3.771,0,6.83,3.057,6.83,6.829v8.705"/>
	
		<line clip-path="url(#SVGID_2_)" fill="none" stroke="#ffffff" stroke-width="3" stroke-linecap="round" stroke-linejoin="round" stroke-miterlimit="10" x1="1.5" y1="39.687" x2="40.758" y2="39.687"/>
	
		<line clip-path="url(#SVGID_2_)" fill="none" stroke="#ffffff" stroke-width="3" stroke-linecap="round" stroke-linejoin="round" stroke-miterlimit="10" x1="17.271" y1="8.945" x2="25.732" y2="8.945"/>
	
		<path clip-path="url(#SVGID_2_)" fill="none" stroke="#ffffff" stroke-width="4" stroke-linecap="round" stroke-linejoin="round" d="
		M33.498,28.017h16.625c7.001,0,13.715-2.781,18.666-7.731l3.595-3.596"/>
	<polygon clip-path="url(#SVGID_2_)" fill="#ffffff" points="73.802,33.426 70.604,33.256 71.46,17.501 55.683,17.798
		55.626,14.596 74.841,14.238 	"/>
	
		<line clip-path="url(#SVGID_2_)" fill="none" stroke="#ffffff" stroke-width="3" stroke-linecap="round" stroke-linejoin="round" stroke-miterlimit="10" x1="13.956" y1="62.922" x2="28.683" y2="62.922"/>
	
		<line clip-path="url(#SVGID_2_)" fill="none" stroke="#ffffff" stroke-width="3" stroke-linecap="round" stroke-linejoin="round" stroke-miterlimit="10" x1="13.956" y1="51.916" x2="28.683" y2="51.916"/>
</g>
</svg>
