<?xml version="1.0" encoding="utf-8"?>
<!-- Generator: Adobe Illustrator 19.0.0, SVG Export Plug-In . SVG Version: 6.00 Build 0)  -->
<svg version="1.1" id="Слой_1" xmlns="http://www.w3.org/2000/svg" xmlns:xlink="http://www.w3.org/1999/xlink" x="0px" y="0px"
	 viewBox="0 0 70 40" style="enable-background:new 0 0 70 40;" xml:space="preserve">
<style type="text/css">
	.st0{fill:none;stroke:#2C3238;stroke-width:2;stroke-linecap:round;stroke-linejoin:round;stroke-miterlimit:10;}
	.st1{fill:#2C3238;}
</style>
<polyline id="XMLID_11_" class="st0" points="36.9,14.6 63.6,14.6 69.1,19.9 63.6,25.4 36.9,25.4 "/>
<line id="XMLID_10_" class="st0" x1="37.6" y1="19.3" x2="59.7" y2="19.3"/>
<g id="XMLID_4_">
	<g id="XMLID_23_">
		<path id="XMLID_24_" class="st1" d="M19.3,2.8c9.4,0,17.1,7.7,17.1,17.2s-7.7,17.2-17.1,17.2S2.3,29.5,2.3,20S9.9,2.8,19.3,2.8
			 M19.3,0.8C8.8,0.8,0.3,9.4,0.3,20s8.5,19.2,19.1,19.2S38.4,30.6,38.4,20S29.9,0.8,19.3,0.8L19.3,0.8z"/>
	</g>
</g>
<polyline id="XMLID_3_" class="st0" points="36.9,25.4 43.1,25.8 43.1,30 35.2,30 "/>
<ellipse id="XMLID_2_" class="st0" cx="14.5" cy="15.9" rx="5.9" ry="5.9"/>
</svg>
