<?xml version="1.0" encoding="utf-8"?>
<!-- Generator: Adobe Illustrator 19.0.0, SVG Export Plug-In . SVG Version: 6.00 Build 0)  -->
<svg version="1.1" id="Слой_1" xmlns="http://www.w3.org/2000/svg" xmlns:xlink="http://www.w3.org/1999/xlink" x="0px" y="0px"
	 viewBox="0 0 54 54" style="enable-background:new 0 0 54 54;" xml:space="preserve">
<style type="text/css">
	.st0{fill:none;stroke:#2C3238;stroke-width:2;stroke-linecap:round;stroke-linejoin:round;stroke-miterlimit:10;}
</style>
<path id="XMLID_2_" class="st0" d="M27,38c-6,0-10.9-4.9-10.9-10.9c0-6,4.9-10.9,10.9-10.9c6,0,10.9,4.9,10.9,10.9
	C37.9,33.1,33,38,27,38z M47.4,23c-0.9-0.1-1.8-0.9-2.1-1.8L44,18.1c-0.4-0.8-0.3-2,0.2-2.7l2.1-2.8c0.5-0.7,0.5-1.8-0.1-2.5
	l-2.3-2.3c-0.7-0.6-1.8-0.6-2.5-0.1l-2.8,2.1c-0.7,0.5-1.9,0.6-2.7,0.2l-3.2-1.3c-0.8-0.3-1.6-1.2-1.8-2.1L30.5,3
	c-0.1-0.9-0.9-1.7-1.8-1.8c0,0-0.5-0.1-1.6-0.1c-1.1,0-1.7,0.1-1.7,0.1c-0.9,0.1-1.7,0.9-1.8,1.8L23,6.5c-0.1,0.9-0.9,1.8-1.8,2.1
	l-3.2,1.3c-0.8,0.4-2,0.3-2.7-0.2l-2.8-2.1c-0.7-0.5-1.8-0.5-2.5,0.1L7.7,10c-0.6,0.7-0.6,1.8-0.1,2.5l2.1,2.8
	c0.5,0.7,0.6,1.9,0.2,2.7l-1.3,3.2c-0.3,0.8-1.2,1.6-2.1,1.8l-3.5,0.5c-0.9,0.1-1.7,1-1.8,1.8c0,0-0.1,0.6-0.1,1.7
	c0,1.1,0.1,1.7,0.1,1.7c0.1,0.9,0.9,1.7,1.8,1.8L6.6,31c0.9,0.1,1.8,0.9,2.1,1.8L10,36c0.4,0.8,0.3,2-0.2,2.7l-2.1,2.8
	c-0.5,0.7-0.7,1.7-0.3,2.1c0.4,0.5,1.5,1.6,1.5,1.6c0,0,0.4,0.3,0.8,0.7c0.4,0.4,2.2,1,2.9,0.4l2.8-2.1c0.7-0.5,1.9-0.6,2.7-0.2
	l3.2,1.3c0.8,0.3,1.6,1.2,1.8,2.1l0.5,3.5c0.1,0.9,0.9,1.7,1.8,1.8c0,0,0.5,0.1,1.6,0.1c1.1,0,1.7-0.1,1.7-0.1
	c0.9-0.1,1.7-0.9,1.8-1.8l0.5-3.5c0.1-0.9,0.9-1.8,1.8-2.1l3.2-1.3c0.8-0.4,2-0.3,2.7,0.2l2.8,2.1c0.7,0.5,1.8,0.5,2.5-0.1l2.3-2.3
	c0.6-0.7,0.6-1.8,0.1-2.5l-2.1-2.8C43.7,38,43.6,36.8,44,36l1.3-3.2c0.3-0.8,1.2-1.6,2.1-1.8l3.5-0.5c0.9-0.1,1.7-0.9,1.8-1.8
	c0,0,0.1-0.5,0.1-1.7c0-1.1-0.1-1.7-0.1-1.7c-0.1-0.9-0.9-1.7-1.8-1.8L47.4,23z"/>
</svg>
