<?xml version="1.0" encoding="utf-8"?>
<!-- Generator: Adobe Illustrator 19.0.0, SVG Export Plug-In . SVG Version: 6.00 Build 0)  -->
<svg version="1.1" id="Слой_1" xmlns="http://www.w3.org/2000/svg" xmlns:xlink="http://www.w3.org/1999/xlink" x="0px" y="0px"
	 viewBox="0 0 70 54" style="enable-background:new 0 0 70 54;" xml:space="preserve">
<style type="text/css">
	.st0{fill:none;stroke:#2C3238;stroke-width:2;stroke-linecap:round;stroke-linejoin:round;stroke-miterlimit:10;}
</style>
<path id="XMLID_3_" class="st0" d="M63.5,33.9c-3-1.8-6.5-1.9-9.4-0.5c-2.6,1.2-5.6,1.1-8-0.3l0,0c-3-1.7-4.8-5.1-4.3-8.6
	c1.3-8.5-3.1-17.4-11.6-21.3C21.3-1,10.5,2.1,5,10.3c-6.5,9.8-3.4,22.9,6.7,28.7c7.2,4.2,16,3.4,22.2-1.3c2.7-2.1,6.5-2.2,9.4-0.5
	l0.7,0.4c2.3,1.3,3.9,3.6,4.2,6.2c0.4,3.1,2.1,5.9,5,7.6c5,2.9,11.3,1.1,14-4.1C69.7,42.6,68.1,36.6,63.5,33.9z"/>
<circle id="XMLID_2_" class="st0" cx="21.7" cy="21.7" r="13.6"/>
</svg>
