<?xml version="1.0" encoding="utf-8"?>
<!-- Generator: Adobe Illustrator 19.0.0, SVG Export Plug-In . SVG Version: 6.00 Build 0)  -->
<svg version="1.1" id="Слой_1" xmlns="http://www.w3.org/2000/svg" xmlns:xlink="http://www.w3.org/1999/xlink" x="0px" y="0px"
	 viewBox="0 0 45 55" style="enable-background:new 0 0 45 55;" xml:space="preserve">
<style type="text/css">
	.st0{fill:none;stroke:#2C3238;stroke-width:2;stroke-linecap:round;stroke-linejoin:round;stroke-miterlimit:10;}
	.st1{fill:#2C3238;}
</style>
<path id="XMLID_3_" class="st0" d="M40.5,54.1c1.4,0,2.5-1.2,2.4-2.6l-0.4-7.4c0-2.5-13.8-6.9-14.9-9l-0.5-2c3-2.5,5.5-6.2,6.7-11.2
	c0.2,0.2,2-1.6,2-4c0-2.4,0-3.3-1.1-3.3c-0.5-8.7-5.7-13.4-12-13.4c-6.4,0-11.6,4.8-12,13.6c-0.1,0-1.3,0.9-1.3,3.3s1.9,4.1,2.2,3.8
	c1.2,4.9,3.5,8.5,6.4,11l-0.6,2.3c-1.1,2.1-14.6,6.5-14.6,8.9l-0.4,7.4c-0.1,1.4,1,2.6,2.4,2.6H40.5z"/>
<path id="XMLID_2_" class="st1" d="M36.3,50.5h-7c-0.5,0-0.8-0.4-0.8-0.8v-4c0-0.5,0.4-0.8,0.8-0.8h7c0.5,0,0.8,0.4,0.8,0.8v4
	C37.1,50.2,36.7,50.5,36.3,50.5z"/>
</svg>
