<?xml version="1.0" encoding="utf-8"?>
<!-- Generator: Adobe Illustrator 16.0.0, SVG Export Plug-In . SVG Version: 6.00 Build 0)  -->
<!DOCTYPE svg PUBLIC "-//W3C//DTD SVG 1.1//EN" "http://www.w3.org/Graphics/SVG/1.1/DTD/svg11.dtd">
<svg version="1.1" id="Слой_1" xmlns="http://www.w3.org/2000/svg" xmlns:xlink="http://www.w3.org/1999/xlink" x="0px" y="0px"
	 width="101.55px" height="101.55px" viewBox="0 0 101.55 101.55" enable-background="new 0 0 101.55 101.55" xml:space="preserve">
<g>
	<defs>
		<rect id="SVGID_1_" width="101.55" height="101.55"/>
	</defs>
	<clipPath id="SVGID_2_">
		<use xlink:href="#SVGID_1_"  overflow="visible"/>
	</clipPath>
	
		<circle clip-path="url(#SVGID_2_)" fill="none" stroke="#0b7cc1" stroke-width="3" stroke-linecap="round" stroke-linejoin="round" stroke-miterlimit="10" cx="50.775" cy="50.775" r="49.275"/>
	<path clip-path="url(#SVGID_2_)" fill="#2B3137" d="M58.214,65.342l-0.168-0.894c-0.254-1.344,0.215-2.747,1.286-3.596
		c6.194-4.897,10.44-14.505,10.44-23.302c0-12.467-8.526-22.574-19.043-22.574S31.687,25.084,31.687,37.551
		c0,8.693,4.146,18.177,10.22,23.127c1.083,0.882,1.537,2.324,1.234,3.688L42.9,65.453c-1.459,2.955-18.8,5.682-21.156,9.426
		c-0.001,0.002-0.443,2.086-0.778,3.67c3.344,3.587,7.323,6.571,11.76,8.771c2.731,1.227,5.693,2.331,8.732,3.14
		c2.994,0.703,6.111,1.087,9.317,1.087c2.963,0,5.851-0.326,8.637-0.929c3.323-0.833,6.573-2.032,9.543-3.364
		c4.4-2.202,8.348-5.174,11.666-8.742c-0.339-1.586-0.779-3.646-0.78-3.649C77.391,71.102,59.675,68.27,58.214,65.342"/>
	
		<path clip-path="url(#SVGID_2_)" fill="#0b7cc1" stroke="#0b7cc1" stroke-width="3" stroke-linecap="round" stroke-linejoin="round" stroke-miterlimit="10" d="
		M58.214,65.342l-0.168-0.894c-0.254-1.344,0.215-2.747,1.286-3.596c6.194-4.897,10.44-14.505,10.44-23.302
		c0-12.467-8.526-22.574-19.043-22.574S31.687,25.084,31.687,37.551c0,8.693,4.146,18.177,10.22,23.127
		c1.083,0.882,1.537,2.324,1.234,3.688L42.9,65.453c-1.459,2.955-18.8,5.682-21.156,9.426c-0.001,0.002-0.443,2.086-0.778,3.67
		c3.344,3.587,7.323,6.571,11.76,8.771c2.731,1.227,5.693,2.331,8.732,3.14c2.994,0.703,6.111,1.087,9.317,1.087
		c2.963,0,5.851-0.326,8.637-0.929c3.323-0.833,6.573-2.032,9.543-3.364c4.4-2.202,8.348-5.174,11.666-8.742
		c-0.339-1.586-0.779-3.646-0.78-3.649C77.391,71.102,59.675,68.27,58.214,65.342z"/>
</g>
</svg>
