<?xml version="1.0" encoding="utf-8"?>
<!-- Generator: Adobe Illustrator 19.0.0, SVG Export Plug-In . SVG Version: 6.00 Build 0)  -->
<svg version="1.1" id="Слой_1" xmlns="http://www.w3.org/2000/svg" xmlns:xlink="http://www.w3.org/1999/xlink" x="0px" y="0px"
	 viewBox="0 0 110 88" style="enable-background:new 0 0 110 88;" xml:space="preserve">
<style type="text/css">
	.st0{fill:none;stroke:#2C3238;stroke-width:3;stroke-miterlimit:10;}
	.st1{fill:#2C3238;}
	.st2{fill:#FFFFFF;}
</style>
<path id="XMLID_11_" class="st0" d="M103.4,70.4H7.3C4.4,70.4,2,68,2,65.1V7c0-2.9,2.4-5.3,5.3-5.3h96.1c2.9,0,5.3,2.4,5.3,5.3v58.1
	C108.7,68,106.3,70.4,103.4,70.4z"/>
<line id="XMLID_10_" class="st0" x1="93.7" y1="86.4" x2="17" y2="86.4"/>
<line id="XMLID_9_" class="st0" x1="55.3" y1="69.1" x2="55.3" y2="87"/>
<path id="XMLID_8_" class="st1" d="M77,30.6c-1.8-9.9-10.5-17.5-20.9-17.5c-10.5,0-19.1,7.6-20.9,17.5c-0.1,0-0.2,0-0.4,0
	c-6.9,0-12.5,5.6-12.5,12.5s5.6,12.5,12.5,12.5c3.6,0,38.5,0,42,0c6.9,0,12.5-5.6,12.5-12.5C89.3,36.3,83.8,30.7,77,30.6z"/>
<g id="XMLID_2_">
	<rect id="XMLID_7_" x="48.1" y="32.1" class="st2" width="2.2" height="9.5"/>
	<rect id="XMLID_6_" x="54.6" y="32.1" class="st2" width="2.2" height="9.5"/>
	<rect id="XMLID_5_" x="61" y="32.1" class="st2" width="2.2" height="9.5"/>
	<path id="XMLID_4_" class="st2" d="M65.2,30.6H46.1c-0.4,0-0.5-0.5-0.2-0.7l8.8-4.7c0.6-0.3,1.4-0.3,2,0l8.6,4.7
		C65.7,30,65.6,30.6,65.2,30.6z"/>
	<rect id="XMLID_3_" x="46.5" y="43.7" class="st2" width="18.2" height="2.1"/>
</g>
</svg>
