<?xml version="1.0" encoding="utf-8"?>
<!-- Generator: Adobe Illustrator 19.0.0, SVG Export Plug-In . SVG Version: 6.00 Build 0)  -->
<svg version="1.1" id="Слой_1" xmlns="http://www.w3.org/2000/svg" xmlns:xlink="http://www.w3.org/1999/xlink" x="0px" y="0px"
	 viewBox="0 0 97 119" style="enable-background:new 0 0 97 119;" xml:space="preserve">
<style type="text/css">
	.st0{fill:none;stroke:#2C3238;stroke-width:3;stroke-miterlimit:10;}
	.st1{fill:#2C3238;}
	.st2{fill:none;stroke:#FFFFFF;stroke-width:4;stroke-miterlimit:10;}
	.st3{fill:none;stroke:#FFFFFF;stroke-width:3;stroke-miterlimit:10;}
</style>
<polyline id="XMLID_11_" class="st0" points="68.8,50.8 81.6,38 69,25.4 "/>
<line id="XMLID_10_" class="st0" x1="34" y1="38" x2="80.9" y2="38"/>
<line id="XMLID_9_" class="st0" x1="55.1" y1="24.8" x2="15.7" y2="24.8"/>
<path id="XMLID_8_" class="st1" d="M1.8,62.8v34.5c0,10.9,8.9,19.8,19.8,19.8h58.3c8.4,0,15.2-6.8,15.2-15.2v-39
	c0-1.7-1.4-3.1-3.1-3.1H4.9C3.2,59.7,1.8,61.1,1.8,62.8z"/>
<line id="XMLID_7_" class="st0" x1="33.8" y1="13.5" x2="48.7" y2="13.5"/>
<polyline id="XMLID_6_" class="st2" points="32.9,76.5 22.2,87.2 32.7,97.7 "/>
<line id="XMLID_5_" class="st2" x1="59.1" y1="87.2" x2="22.6" y2="87.2"/>
<line id="XMLID_4_" class="st3" x1="50.7" y1="101.2" x2="69.7" y2="101.2"/>
<path id="XMLID_3_" class="st0" d="M79,117.1H18c-8.9,0-16.1-7.2-16.1-16.1V18C1.8,9.1,9.1,1.9,18,1.9H79c8.9,0,16.1,7.2,16.1,16.1
	V101C95.2,109.9,87.9,117.1,79,117.1z"/>
<line id="XMLID_2_" class="st3" x1="56.7" y1="73.2" x2="65.2" y2="73.2"/>
</svg>
