<?xml version="1.0" encoding="utf-8"?>
<!-- Generator: Adobe Illustrator 19.0.0, SVG Export Plug-In . SVG Version: 6.00 Build 0)  -->
<svg version="1.1" id="Слой_1" xmlns="http://www.w3.org/2000/svg" xmlns:xlink="http://www.w3.org/1999/xlink" x="0px" y="0px"
	 viewBox="0 0 89 137" style="enable-background:new 0 0 89 137;" xml:space="preserve">
<style type="text/css">
	.st0{fill:none;stroke:#010101;stroke-width:3;stroke-miterlimit:10;}
	.st1{fill:#010101;stroke:#010101;stroke-width:3;stroke-miterlimit:10;}
	.st2{fill:none;stroke:#010101;stroke-width:3;stroke-linecap:round;stroke-linejoin:round;stroke-miterlimit:10;}
</style>
<path id="XMLID_6_" class="st0" d="M87.6,86.1c0,6.1-1.4,12-4.1,17.3c-3.6,7.2-9.7,12.8-16.9,16.5l-22.1,15.1l-21.6-14.9
	c-9-4.7-16.3-12.5-19.4-22.2c-1.2-3.8-1.8-7.7-1.8-11.7l0-64.5c0-4,2.9-7.4,6.8-8l0,0c7.2-1.2,14.2-3.3,20.9-6.1l11.8-5.1
	c2.1-0.9,4.4-0.9,6.5,0l12.1,5.2c6.7,2.8,13.6,4.9,20.8,6l0.2,0c3.9,0.6,6.8,4,6.8,8V86.1z"/>
<path id="XMLID_3_" class="st1" d="M44.7,53.7c-9.9,0-17.9,8-17.9,17.9c0,9.9,8,17.9,17.9,17.9c9.9,0,17.9-8,17.9-17.9
	C62.6,61.7,54.6,53.7,44.7,53.7z M47.6,74.8c0,0.1,0,0.1,0,0.2v2.1c0,1.6-1.3,2.9-2.9,2.9c-1.6,0-2.9-1.3-2.9-2.9V75
	c0-0.1,0-0.2,0-0.2c-2-1.1-3.3-3.1-3.3-5.5c0-3.5,2.8-6.3,6.3-6.3c3.5,0,6.3,2.8,6.3,6.3C51,71.7,49.6,73.8,47.6,74.8z"/>
<path id="XMLID_2_" class="st2" d="M28.2,62.9c0-0.2,0-5.9,0-6.1c0.3-8.8,7.5-15.9,16.5-15.9c8.9,0,16.1,7,16.4,15.8
	c0,0.2,0,6,0,6.2"/>
</svg>
