<?xml version="1.0" encoding="utf-8"?>
<!-- Generator: Adobe Illustrator 19.0.0, SVG Export Plug-In . SVG Version: 6.00 Build 0)  -->
<svg version="1.1" id="Слой_1" xmlns="http://www.w3.org/2000/svg" xmlns:xlink="http://www.w3.org/1999/xlink" x="0px" y="0px"
	 viewBox="0 0 110 111" style="enable-background:new 0 0 110 111;" xml:space="preserve">
<style type="text/css">
	.st0{fill:none;stroke:#2C3238;stroke-width:3;stroke-miterlimit:10;stroke-dasharray:20,11;}
	.st1{fill:#2C3238;}
	.st2{fill:none;stroke:#2C3238;stroke-width:3;stroke-miterlimit:10;}
	.st3{fill:none;stroke:#2C3238;stroke-width:3;stroke-miterlimit:10;stroke-dasharray:9.6667,4.3939;}
</style>
<g id="XMLID_26_">
	<g id="XMLID_10_">
		<path id="XMLID_20_" class="st0" d="M54.1,109.3C25.3,109.3,1.9,86,1.9,57.2c0-27.8,21.7-50.5,49.1-52.1"/>
		<g id="XMLID_18_">
			<polygon id="XMLID_19_" class="st1" points="46,9.9 50.3,5.2 45.6,0.9 49.4,0.8 54.1,5 49.8,9.7 			"/>
		</g>
	</g>
</g>
<g id="XMLID_6_">
	<g id="XMLID_12_">
		<path id="XMLID_17_" class="st2" d="M106.1,60.7c-0.1,1.8-0.3,3.7-0.7,5.5"/>
		<path id="XMLID_16_" class="st3" d="M104.5,70.5c-4.7,17.8-18.5,31.9-36.2,36.9"/>
		<path id="XMLID_15_" class="st2" d="M66.2,107.9c-1.8,0.4-3.6,0.8-5.4,1"/>
		<g id="XMLID_13_">
			<circle id="XMLID_14_" class="st1" cx="106.1" cy="60.9" r="3.7"/>
		</g>
	</g>
</g>
<path id="XMLID_2_" class="st1" d="M54.1,28.5c-10.5,0-19.6,5.6-24.6,14h12.5v3.4H27.7c-1.5,3.5-2.3,7.3-2.3,11.3
	c0,15.8,12.8,28.7,28.7,28.7c15.8,0,28.7-12.8,28.7-28.7C82.7,41.3,69.9,28.5,54.1,28.5z M49.1,74.5h-8.3v-3.4h8.3V74.5z M62.7,66.3
	l-2.4-2.4l5.1-5.1H36.5v-3.4h28.9l-4.9-4.9l2.4-2.4l9,9L62.7,66.3z"/>
</svg>
