<?xml version="1.0" encoding="utf-8"?>
<!-- Generator: Adobe Illustrator 19.0.0, SVG Export Plug-In . SVG Version: 6.00 Build 0)  -->
<svg version="1.1" id="Слой_1" xmlns="http://www.w3.org/2000/svg" xmlns:xlink="http://www.w3.org/1999/xlink" x="0px" y="0px"
	 viewBox="0 0 299 71" style="enable-background:new 0 0 299 71;" xml:space="preserve">
<style type="text/css">
	.st0{fill:#FFFFFF;}
</style>
<g id="XMLID_1123_">
	<path id="XMLID_1131_" class="st0" d="M159.4,11.3h-15.5v48.2h-6.3V11.3H122V5.6h37.4V11.3z"/>
	<path id="XMLID_1129_" class="st0" d="M196.5,59.6h-28.6V5.6h27.3v5.7h-21v17.9h19.5V35h-19.5v18.8h22.3V59.6z"/>
	<path id="XMLID_1127_" class="st0" d="M244.4,59.6h-8.8l-20.9-24.6c-0.6-0.7-1-1.3-1.4-2h-0.2v26.6h-6.3V5.6h6.3V31h0.2
		c0.4-0.5,0.8-1.1,1.4-1.8l20.2-23.5h7.9l-23.1,25.9L244.4,59.6z"/>
	<path id="XMLID_1124_" class="st0" d="M295.7,31.9c0,8.8-2.4,15.8-7.1,21c-4.6,5.1-10.9,7.6-18.7,7.6c-7.7,0-13.9-2.6-18.5-7.7
		c-4.5-5-6.7-11.5-6.7-19.5c0-8.5,2.2-15.3,6.7-20.4c4.7-5.4,11.2-8.1,19.5-8.1c7.4,0,13.4,2.5,18,7.5
		C293.4,17.3,295.7,23.8,295.7,31.9z M289,32.8c0-7.2-1.7-12.8-5.1-16.7c-3.3-3.8-7.8-5.6-13.5-5.6c-5.6,0-10.2,2.1-13.8,6.2
		c-3.5,4.1-5.3,9.5-5.3,16.1c0,6.7,1.8,12.1,5.3,16.2c3.4,4,7.9,5.9,13.4,5.9c5.8,0,10.4-1.9,13.8-5.6C287.3,45.3,289,39.8,289,32.8
		z"/>
</g>
<path id="XMLID_1119_" class="st0" d="M68.1,10.7C68.1,10.7,68.1,10.7,68.1,10.7c1.5-1,1.6-3,0.4-4.2c-4.1-3.8-9.5-6-15.3-6
	c-9.3,0-17.7,5.8-21,14.4l3.1,1.8l0.9,2.3c0.3-0.6,0.6-1.2,0.8-1.8c2.4-6.8,8.9-11.4,16.1-11.4c4.4,0,8.5,1.7,11.6,4.6
	C65.7,11.3,67,11.4,68.1,10.7z M25.9,59.4c-9.5,0-17.1-7.7-17.1-17.1c0-7.1,4.3-13.2,10.5-15.8c1.2-0.5,1.8-1.9,1.5-3.2
	c0,0,0,0,0-0.1c-0.4-1.5-2.1-2.3-3.6-1.7C9,24.9,3.3,32.9,3.3,42.2c0,12.4,10.1,22.5,22.5,22.5c0,0,0.5,0,1.2,0
	c1.5,0,2.6-1.2,2.6-2.7c0,0,0,0,0-0.1c0-1.5-1.2-2.7-2.6-2.7C26.3,59.4,25.9,59.4,25.9,59.4z M81.2,19.7l-3.9,4.9
	c1,0.3,2.1,0.4,3.2,0.4h0.2c9.3,0.1,16.9,7.8,16.9,17.1c0,9.3-7.5,17-16.8,17.1c-0.3,0-12.7,0-25.7,0c-1.5,0-2.6,1.2-2.6,2.7
	c0,0,0,0,0,0.1c0,1.5,1.2,2.7,2.6,2.7c13.1,0,25.6,0,25.7,0c5.9-0.1,11.5-2.5,15.6-6.7c4.2-4.2,6.5-9.8,6.5-15.8
	C102.9,30.1,93.2,20.1,81.2,19.7z"/>
<path id="XMLID_1116_" class="st0" d="M31.8,17.1c1.7,0,3.1,1.4,3.1,3.1c0,1.7-1.4,3.1-3.1,3.1c-1.7,0-3.1-1.4-3.1-3.1
	C28.7,18.5,30.1,17.1,31.8,17.1 M31.8,11.8c-4.7,0-8.4,3.8-8.4,8.4s3.8,8.4,8.4,8.4s8.4-3.8,8.4-8.4S36.4,11.8,31.8,11.8L31.8,11.8z
	"/>
<path id="XMLID_1090_" class="st0" d="M74.6,17.1c1.7,0,3.1,1.4,3.1,3.1c0,1.7-1.4,3.1-3.1,3.1c-1.7,0-3.1-1.4-3.1-3.1
	C71.5,18.5,72.9,17.1,74.6,17.1 M74.6,11.8c-4.7,0-8.4,3.8-8.4,8.4s3.8,8.4,8.4,8.4s8.4-3.8,8.4-8.4S79.2,11.8,74.6,11.8L74.6,11.8z
	"/>
<path id="XMLID_1087_" class="st0" d="M41.1,59c1.7,0,3.1,1.4,3.1,3.1c0,1.7-1.4,3.1-3.1,3.1S38,63.8,38,62.1
	C38,60.4,39.4,59,41.1,59 M41.1,53.6c-4.7,0-8.4,3.8-8.4,8.4s3.8,8.4,8.4,8.4s8.4-3.8,8.4-8.4S45.8,53.6,41.1,53.6L41.1,53.6z"/>
</svg>
